<svg version="1.1" viewBox="0.0 0.0 423.0 258.0" fill="none" stroke="none" stroke-linecap="square" stroke-miterlimit="10" width="423" height="258" xmlns:xlink="http://www.w3.org/1999/xlink" xmlns="http://www.w3.org/2000/svg"><path fill="#ffffff" d="M0 0L423.0 0L423.0 258.0L0 258.0L0 0Z" fill-rule="nonzero"/><path stroke="#333333" stroke-width="1.0" stroke-linecap="butt" d="M85.5 193.5L410.5 193.5" fill-rule="nonzero"/><path stroke="#cccccc" stroke-width="1.0" stroke-linecap="butt" d="M85.5 153.5L410.5 153.5" fill-rule="nonzero"/><path stroke="#cccccc" stroke-width="1.0" stroke-linecap="butt" d="M85.5 114.5L410.5 114.5" fill-rule="nonzero"/><path stroke="#cccccc" stroke-width="1.0" stroke-linecap="butt" d="M85.5 75.5L410.5 75.5" fill-rule="nonzero"/><clipPath id="id_0"><path d="M85.9 75.1L410.1 75.1L410.1 193.1L85.9 193.1L85.9 75.1Z" clip-rule="nonzero"/></clipPath><path stroke="#000000" stroke-width="2.0" stroke-linecap="butt" stroke-opacity="0.0" clip-path="url(#id_0)" d="M127.0 193.0L113.0 193.0L113.0 84.0C113.0 82.89543 113.89543 82.0 115.0 82.0L125.0 82.0C126.10457 82.0 127.0 82.89543 127.0 84.0Z" fill-rule="nonzero"/><path fill="#4285f4" clip-path="url(#id_0)" d="M127.0 193.0L113.0 193.0L113.0 84.0C113.0 82.89543 113.89543 82.0 115.0 82.0L125.0 82.0C126.10457 82.0 127.0 82.89543 127.0 84.0Z" fill-rule="nonzero"/><path stroke="#000000" stroke-width="2.0" stroke-linecap="butt" stroke-opacity="0.0" clip-path="url(#id_0)" d="M202.0 193.0L188.0 193.0L188.0 84.0C188.0 82.89543 188.89543 82.0 190.0 82.0L200.0 82.0C201.10457 82.0 202.0 82.89543 202.0 84.0Z" fill-rule="nonzero"/><path fill="#4285f4" clip-path="url(#id_0)" d="M202.0 193.0L188.0 193.0L188.0 84.0C188.0 82.89543 188.89543 82.0 190.0 82.0L200.0 82.0C201.10457 82.0 202.0 82.89543 202.0 84.0Z" fill-rule="nonzero"/><path stroke="#000000" stroke-width="2.0" stroke-linecap="butt" stroke-opacity="0.0" clip-path="url(#id_0)" d="M276.0 193.0L262.0 193.0L262.0 84.0C262.0 82.89543 262.89542 82.0 264.0 82.0L274.0 82.0C275.10458 82.0 276.0 82.89543 276.0 84.0Z" fill-rule="nonzero"/><path fill="#4285f4" clip-path="url(#id_0)" d="M276.0 193.0L262.0 193.0L262.0 84.0C262.0 82.89543 262.89542 82.0 264.0 82.0L274.0 82.0C275.10458 82.0 276.0 82.89543 276.0 84.0Z" fill-rule="nonzero"/><path stroke="#000000" stroke-width="2.0" stroke-linecap="butt" stroke-opacity="0.0" clip-path="url(#id_0)" d="M351.0 193.0L337.0 193.0L337.0 84.0C337.0 82.89543 337.89542 82.0 339.0 82.0L349.0 82.0C350.10458 82.0 351.0 82.89543 351.0 84.0Z" fill-rule="nonzero"/><path fill="#4285f4" clip-path="url(#id_0)" d="M351.0 193.0L337.0 193.0L337.0 84.0C337.0 82.89543 337.89542 82.0 339.0 82.0L349.0 82.0C350.10458 82.0 351.0 82.89543 351.0 84.0Z" fill-rule="nonzero"/><path stroke="#000000" stroke-width="2.0" stroke-linecap="butt" stroke-opacity="0.0" clip-path="url(#id_0)" d="M143.0 193.0L129.0 193.0L129.0 83.0C129.0 81.89543 129.89543 81.0 131.0 81.0L141.0 81.0C142.10457 81.0 143.0 81.89543 143.0 83.0Z" fill-rule="nonzero"/><path fill="#ea4335" clip-path="url(#id_0)" d="M143.0 193.0L129.0 193.0L129.0 83.0C129.0 81.89543 129.89543 81.0 131.0 81.0L141.0 81.0C142.10457 81.0 143.0 81.89543 143.0 83.0Z" fill-rule="nonzero"/><path stroke="#000000" stroke-width="2.0" stroke-linecap="butt" stroke-opacity="0.0" clip-path="url(#id_0)" d="M218.0 193.0L204.0 193.0L204.0 83.0C204.0 81.89543 204.89543 81.0 206.0 81.0L216.0 81.0C217.10457 81.0 218.0 81.89543 218.0 83.0Z" fill-rule="nonzero"/><path fill="#ea4335" clip-path="url(#id_0)" d="M218.0 193.0L204.0 193.0L204.0 83.0C204.0 81.89543 204.89543 81.0 206.0 81.0L216.0 81.0C217.10457 81.0 218.0 81.89543 218.0 83.0Z" fill-rule="nonzero"/><path stroke="#000000" stroke-width="2.0" stroke-linecap="butt" stroke-opacity="0.0" clip-path="url(#id_0)" d="M292.0 193.0L278.0 193.0L278.0 82.0C278.0 80.89543 278.89542 80.0 280.0 80.0L290.0 80.0C291.10458 80.0 292.0 80.89543 292.0 82.0Z" fill-rule="nonzero"/><path fill="#ea4335" clip-path="url(#id_0)" d="M292.0 193.0L278.0 193.0L278.0 82.0C278.0 80.89543 278.89542 80.0 280.0 80.0L290.0 80.0C291.10458 80.0 292.0 80.89543 292.0 82.0Z" fill-rule="nonzero"/><path stroke="#000000" stroke-width="2.0" stroke-linecap="butt" stroke-opacity="0.0" clip-path="url(#id_0)" d="M367.0 193.0L353.0 193.0L353.0 80.0C353.0 78.89543 353.89542 78.0 355.0 78.0L365.0 78.0C366.10458 78.0 367.0 78.89543 367.0 80.0Z" fill-rule="nonzero"/><path fill="#ea4335" clip-path="url(#id_0)" d="M367.0 193.0L353.0 193.0L353.0 80.0C353.0 78.89543 353.89542 78.0 355.0 78.0L365.0 78.0C366.10458 78.0 367.0 78.89543 367.0 80.0Z" fill-rule="nonzero"/><path stroke="#000000" stroke-width="2.0" stroke-linecap="butt" stroke-opacity="0.0" clip-path="url(#id_0)" d="M159.0 193.0L145.0 193.0L145.0 84.0C145.0 82.89543 145.89543 82.0 147.0 82.0L157.0 82.0C158.10457 82.0 159.0 82.89543 159.0 84.0Z" fill-rule="nonzero"/><path fill="#fbbc04" clip-path="url(#id_0)" d="M159.0 193.0L145.0 193.0L145.0 84.0C145.0 82.89543 145.89543 82.0 147.0 82.0L157.0 82.0C158.10457 82.0 159.0 82.89543 159.0 84.0Z" fill-rule="nonzero"/><path stroke="#000000" stroke-width="2.0" stroke-linecap="butt" stroke-opacity="0.0" clip-path="url(#id_0)" d="M234.0 193.0L220.0 193.0L220.0 84.0C220.0 82.89543 220.89543 82.0 222.0 82.0L232.0 82.0C233.10457 82.0 234.0 82.89543 234.0 84.0Z" fill-rule="nonzero"/><path fill="#fbbc04" clip-path="url(#id_0)" d="M234.0 193.0L220.0 193.0L220.0 84.0C220.0 82.89543 220.89543 82.0 222.0 82.0L232.0 82.0C233.10457 82.0 234.0 82.89543 234.0 84.0Z" fill-rule="nonzero"/><path stroke="#000000" stroke-width="2.0" stroke-linecap="butt" stroke-opacity="0.0" clip-path="url(#id_0)" d="M308.0 193.0L294.0 193.0L294.0 84.0C294.0 82.89543 294.89542 82.0 296.0 82.0L306.0 82.0C307.10458 82.0 308.0 82.89543 308.0 84.0Z" fill-rule="nonzero"/><path fill="#fbbc04" clip-path="url(#id_0)" d="M308.0 193.0L294.0 193.0L294.0 84.0C294.0 82.89543 294.89542 82.0 296.0 82.0L306.0 82.0C307.10458 82.0 308.0 82.89543 308.0 84.0Z" fill-rule="nonzero"/><path stroke="#000000" stroke-width="2.0" stroke-linecap="butt" stroke-opacity="0.0" clip-path="url(#id_0)" d="M383.0 193.0L369.0 193.0L369.0 84.0C369.0 82.89543 369.89542 82.0 371.0 82.0L381.0 82.0C382.10458 82.0 383.0 82.89543 383.0 84.0Z" fill-rule="nonzero"/><path fill="#fbbc04" clip-path="url(#id_0)" d="M383.0 193.0L369.0 193.0L369.0 84.0C369.0 82.89543 369.89542 82.0 371.0 82.0L381.0 82.0C382.10458 82.0 383.0 82.89543 383.0 84.0Z" fill-rule="nonzero"/><path fill="#000000" d="M220.57812 237.9125Q220.57812 235.77188 221.71875 234.56876Q222.875 233.35 224.6875 233.35Q225.89062 233.35 226.84375 233.92813Q227.79688 234.49063 228.29688 235.50626Q228.79688 236.52188 228.79688 237.81876Q228.79688 239.11563 228.26562 240.14688Q227.73438 241.17813 226.76562 241.70938Q225.8125 242.24063 224.6875 242.24063Q223.46875 242.24063 222.51562 241.6625Q221.5625 241.06876 221.0625 240.06876Q220.57812 239.05313 220.57812 237.9125ZM221.75 237.92813Q221.75 239.49063 222.57812 240.38126Q223.42188 241.27188 224.6875 241.27188Q225.96875 241.27188 226.79688 240.38126Q227.625 239.475 227.625 237.80313Q227.625 236.75626 227.26562 235.975Q226.92188 235.19376 226.23438 234.77188Q225.54688 234.33438 224.70312 234.33438Q223.5 234.33438 222.625 235.1625Q221.75 235.99063 221.75 237.92813ZM230.76562 242.1L229.78125 242.1L229.78125 233.50626L230.84375 233.50626L230.84375 236.56876Q231.51562 235.74063 232.54688 235.74063Q233.125 235.74063 233.625 235.975Q234.14062 236.19376 234.46875 236.61563Q234.8125 237.0375 235.0 237.63126Q235.1875 238.225 235.1875 238.89688Q235.1875 240.49063 234.39062 241.36563Q233.59375 242.24063 232.5 242.24063Q231.39062 242.24063 230.76562 241.31876L230.76562 242.1ZM230.75 238.94376Q230.75 240.05313 231.0625 240.55313Q231.5625 241.36563 232.40625 241.36563Q233.09375 241.36563 233.59375 240.77188Q234.10938 240.17813 234.10938 238.975Q234.10938 237.75626 233.625 237.17813Q233.14062 236.6 232.45312 236.6Q231.76562 236.6 231.25 237.20938Q230.75 237.80313 230.75 238.94376ZM236.375 240.24063L237.40625 240.08438Q237.5 240.70938 237.89062 241.0375Q238.29688 241.36563 239.03125 241.36563Q239.75 241.36563 240.09375 241.08438Q240.45312 240.7875 240.45312 240.38126Q240.45312 240.02188 240.14062 239.81876Q239.92188 239.67813 239.0625 239.45938Q237.90625 239.1625 237.45312 238.95938Q237.01562 238.74063 236.78125 238.36563Q236.54688 237.99063 236.54688 237.52188Q236.54688 237.11563 236.73438 236.75626Q236.92188 236.39688 237.25 236.1625Q237.5 235.99063 237.92188 235.86563Q238.34375 235.74063 238.84375 235.74063Q239.5625 235.74063 240.10938 235.95938Q240.67188 236.1625 240.9375 236.52188Q241.20312 236.88126 241.29688 237.475L240.26562 237.61563Q240.20312 237.14688 239.85938 236.88126Q239.53125 236.6 238.90625 236.6Q238.1875 236.6 237.875 236.85Q237.5625 237.08438 237.5625 237.4125Q237.5625 237.61563 237.6875 237.77188Q237.82812 237.94376 238.09375 238.05313Q238.25 238.11563 239.03125 238.31876Q240.15625 238.63126 240.59375 238.81876Q241.03125 239.00626 241.28125 239.36563Q241.53125 239.725 241.53125 240.27188Q241.53125 240.80313 241.21875 241.27188Q240.92188 241.725 240.34375 241.99063Q239.76562 242.24063 239.03125 242.24063Q237.8125 242.24063 237.17188 241.74063Q236.54688 241.225 236.375 240.24063ZM246.09375 241.1625L246.25 242.08438Q245.79688 242.17813 245.45312 242.17813Q244.875 242.17813 244.5625 242.00626Q244.25 241.81876 244.10938 241.52188Q243.98438 241.225 243.98438 240.27188L243.98438 236.69376L243.21875 236.69376L243.21875 235.88126L243.98438 235.88126L243.98438 234.33438L245.03125 233.70938L245.03125 235.88126L246.09375 235.88126L246.09375 236.69376L245.03125 236.69376L245.03125 240.33438Q245.03125 240.7875 245.07812 240.9125Q245.14062 241.0375 245.26562 241.11563Q245.39062 241.19376 245.625 241.19376Q245.8125 241.19376 246.09375 241.1625ZM250.85938 241.33438Q250.26562 241.83438 249.71875 242.0375Q249.1875 242.24063 248.5625 242.24063Q247.53125 242.24063 246.98438 241.74063Q246.4375 241.24063 246.4375 240.45938Q246.4375 240.00626 246.64062 239.63126Q246.84375 239.24063 247.1875 239.02188Q247.53125 238.7875 247.95312 238.67813Q248.25 238.58438 248.89062 238.50626Q250.15625 238.36563 250.76562 238.14688Q250.76562 237.92813 250.76562 237.88126Q250.76562 237.225 250.46875 236.95938Q250.0625 236.61563 249.26562 236.61563Q248.53125 236.61563 248.17188 236.88126Q247.8125 237.13126 247.64062 237.7875L246.60938 237.64688Q246.75 236.99063 247.07812 236.58438Q247.40625 236.17813 248.01562 235.95938Q248.625 235.74063 249.42188 235.74063Q250.21875 235.74063 250.71875 235.92813Q251.21875 236.11563 251.45312 236.39688Q251.6875 236.67813 251.78125 237.11563Q251.82812 237.38126 251.82812 238.08438L251.82812 239.49063Q251.82812 240.95938 251.89062 241.35Q251.96875 241.74063 252.17188 242.1L251.0625 242.1Q250.90625 241.77188 250.85938 241.33438ZM250.76562 238.975Q250.1875 239.20938 249.04688 239.38126Q248.39062 239.475 248.125 239.6Q247.85938 239.70938 247.70312 239.92813Q247.5625 240.14688 247.5625 240.42813Q247.5625 240.85 247.875 241.13126Q248.20312 241.4125 248.8125 241.4125Q249.42188 241.4125 249.89062 241.14688Q250.375 240.88126 250.59375 240.4125Q250.76562 240.05313 250.76562 239.36563L250.76562 238.975ZM257.85938 239.81876L258.89062 239.95938Q258.71875 241.02188 258.01562 241.63126Q257.3125 242.24063 256.29688 242.24063Q255.01562 242.24063 254.23438 241.4125Q253.46875 240.56876 253.46875 239.00626Q253.46875 238.00626 253.79688 237.25626Q254.14062 236.49063 254.8125 236.11563Q255.5 235.74063 256.3125 235.74063Q257.3125 235.74063 257.95312 236.25626Q258.60938 236.75626 258.79688 237.70938L257.76562 237.86563Q257.625 237.24063 257.25 236.92813Q256.875 236.6 256.34375 236.6Q255.54688 236.6 255.04688 237.17813Q254.54688 237.74063 254.54688 238.975Q254.54688 240.24063 255.03125 240.80313Q255.51562 241.36563 256.28125 241.36563Q256.90625 241.36563 257.3125 240.99063Q257.73438 240.61563 257.85938 239.81876ZM259.76562 242.1L259.76562 233.50626L260.82812 233.50626L260.82812 242.1L259.76562 242.1ZM267.04688 240.1L268.14062 240.225Q267.89062 241.17813 267.1875 241.70938Q266.48438 242.24063 265.40625 242.24063Q264.04688 242.24063 263.23438 241.39688Q262.4375 240.55313 262.4375 239.0375Q262.4375 237.475 263.25 236.61563Q264.0625 235.74063 265.34375 235.74063Q266.59375 235.74063 267.375 236.58438Q268.17188 237.42813 268.17188 238.975Q268.17188 239.06876 268.17188 239.25626L263.53125 239.25626Q263.59375 240.2875 264.10938 240.83438Q264.625 241.36563 265.40625 241.36563Q265.98438 241.36563 266.39062 241.06876Q266.8125 240.75626 267.04688 240.1ZM263.59375 238.39688L267.0625 238.39688Q267.0 237.6 266.67188 237.20938Q266.15625 236.6 265.35938 236.6Q264.625 236.6 264.125 237.08438Q263.64062 237.56876 263.59375 238.39688ZM269.375 240.24063L270.40625 240.08438Q270.5 240.70938 270.89062 241.0375Q271.29688 241.36563 272.03125 241.36563Q272.75 241.36563 273.09375 241.08438Q273.45312 240.7875 273.45312 240.38126Q273.45312 240.02188 273.14062 239.81876Q272.92188 239.67813 272.0625 239.45938Q270.90625 239.1625 270.45312 238.95938Q270.01562 238.74063 269.78125 238.36563Q269.54688 237.99063 269.54688 237.52188Q269.54688 237.11563 269.73438 236.75626Q269.92188 236.39688 270.25 236.1625Q270.5 235.99063 270.92188 235.86563Q271.34375 235.74063 271.84375 235.74063Q272.5625 235.74063 273.10938 235.95938Q273.67188 236.1625 273.9375 236.52188Q274.20312 236.88126 274.29688 237.475L273.26562 237.61563Q273.20312 237.14688 272.85938 236.88126Q272.53125 236.6 271.90625 236.6Q271.1875 236.6 270.875 236.85Q270.5625 237.08438 270.5625 237.4125Q270.5625 237.61563 270.6875 237.77188Q270.82812 237.94376 271.09375 238.05313Q271.25 238.11563 272.03125 238.31876Q273.15625 238.63126 273.59375 238.81876Q274.03125 239.00626 274.28125 239.36563Q274.53125 239.725 274.53125 240.27188Q274.53125 240.80313 274.21875 241.27188Q273.92188 241.725 273.34375 241.99063Q272.76562 242.24063 272.03125 242.24063Q270.8125 242.24063 270.17188 241.74063Q269.54688 241.225 269.375 240.24063Z" fill-rule="nonzero"/><path fill="#000000" d="M21.13438 156.05313L21.04063 154.99063Q21.69688 154.9125 22.10313 154.63126Q22.50938 154.35 22.775005 153.77188Q23.025005 153.17813 23.025005 152.44376Q23.025005 151.80313 22.837505 151.30313Q22.63438 150.80313 22.306255 150.56876Q21.962505 150.31876 21.57188 150.31876Q21.16563 150.31876 20.868755 150.55313Q20.556255 150.7875 20.35313 151.31876Q20.212505 151.67813 19.931255 152.86563Q19.650005 154.0375 19.400005 154.50626Q19.07188 155.13126 18.60313 155.42813Q18.118755 155.725 17.525005 155.725Q16.88438 155.725 16.32188 155.36563Q15.743756 154.99063 15.462506 154.2875Q15.165631 153.56876 15.165631 152.70938Q15.165631 151.75626 15.478131 151.02188Q15.775006 150.2875 16.38438 149.89688Q16.97813 149.50626 17.72813 149.475L17.806255 150.56876Q16.993755 150.6625 16.587505 151.17813Q16.16563 151.67813 16.16563 152.6625Q16.16563 153.69376 16.54063 154.1625Q16.91563 154.63126 17.44688 154.63126Q17.91563 154.63126 18.212505 154.30313Q18.50938 153.975 18.82188 152.6Q19.13438 151.20938 19.368755 150.69376Q19.72813 149.94376 20.25938 149.58438Q20.775005 149.225 21.47813 149.225Q22.16563 149.225 22.775005 149.61563Q23.368755 150.00626 23.712505 150.74063Q24.04063 151.475 24.04063 152.39688Q24.04063 153.56876 23.712505 154.36563Q23.368755 155.14688 22.681255 155.6Q21.993755 156.0375 21.13438 156.05313ZM21.618755 143.74063L21.75938 142.70938Q22.82188 142.88126 23.431255 143.58438Q24.04063 144.2875 24.04063 145.30313Q24.04063 146.58438 23.212505 147.36563Q22.368755 148.13126 20.806255 148.13126Q19.806255 148.13126 19.056255 147.80313Q18.29063 147.45938 17.91563 146.7875Q17.54063 146.1 17.54063 145.2875Q17.54063 144.2875 18.056255 143.64688Q18.556255 142.99063 19.50938 142.80313L19.66563 143.83438Q19.04063 143.975 18.72813 144.35Q18.400005 144.725 18.400005 145.25626Q18.400005 146.05313 18.97813 146.55313Q19.54063 147.05313 20.775005 147.05313Q22.04063 147.05313 22.60313 146.56876Q23.16563 146.08438 23.16563 145.31876Q23.16563 144.69376 22.79063 144.2875Q22.41563 143.86563 21.618755 143.74063ZM20.79063 142.19376Q19.056255 142.19376 18.22813 141.24063Q17.54063 140.44376 17.54063 139.2875Q17.54063 138.00626 18.38438 137.19376Q19.212505 136.36563 20.69688 136.36563Q21.900005 136.36563 22.587505 136.725Q23.275005 137.08438 23.66563 137.7875Q24.04063 138.475 24.04063 139.2875Q24.04063 140.58438 23.212505 141.39688Q22.368755 142.19376 20.79063 142.19376ZM20.79063 141.11563Q21.97813 141.11563 22.57188 140.6Q23.16563 140.06876 23.16563 139.2875Q23.16563 138.49063 22.57188 137.975Q21.97813 137.45938 20.75938 137.45938Q19.60313 137.45938 19.00938 137.99063Q18.41563 138.50626 18.41563 139.2875Q18.41563 140.06876 19.00938 140.6Q19.587505 141.11563 20.79063 141.11563ZM23.900005 134.81876L17.681255 134.81876L17.681255 133.86563L18.618755 133.86563Q17.962505 133.50626 17.75938 133.20938Q17.54063 132.89688 17.54063 132.52188Q17.54063 131.99063 17.868755 131.44376L18.85313 131.80313Q18.618755 132.19376 18.618755 132.56876Q18.618755 132.92813 18.837505 133.20938Q19.04063 133.475 19.41563 133.58438Q19.97813 133.77188 20.63438 133.77188L23.900005 133.77188L23.900005 134.81876ZM21.900005 126.55312L22.025005 125.45937Q22.97813 125.70937 23.50938 126.4125Q24.04063 127.11562 24.04063 128.19376Q24.04063 129.55313 23.19688 130.36563Q22.35313 131.1625 20.837505 131.1625Q19.275005 131.1625 18.41563 130.35Q17.54063 129.5375 17.54063 128.25626Q17.54063 127.00625 18.38438 126.225Q19.22813 125.42812 20.775005 125.42812Q20.868755 125.42812 21.056255 125.42812L21.056255 130.06876Q22.087505 130.00626 22.63438 129.49063Q23.16563 128.975 23.16563 128.19376Q23.16563 127.61562 22.868755 127.20937Q22.556255 126.7875 21.900005 126.55312ZM20.19688 130.00626L20.19688 126.5375Q19.400005 126.6 19.00938 126.92812Q18.400005 127.44375 18.400005 128.24063Q18.400005 128.975 18.88438 129.475Q19.368755 129.95938 20.19688 130.00626Z" fill-rule="nonzero"/><path fill="#000000" d="M73.4 192.86563Q73.4 191.33438 73.7125 190.4125Q74.025 189.475 74.63438 188.975Q75.25938 188.475 76.19688 188.475Q76.88438 188.475 77.4 188.75626Q77.93125 189.0375 78.275 189.56876Q78.61875 190.08438 78.80625 190.83438Q78.99375 191.58438 78.99375 192.86563Q78.99375 194.38126 78.68125 195.30313Q78.38438 196.225 77.75938 196.74063Q77.15 197.24063 76.19688 197.24063Q74.9625 197.24063 74.24375 196.35Q73.4 195.2875 73.4 192.86563ZM74.47813 192.86563Q74.47813 194.975 74.97813 195.67813Q75.47813 196.38126 76.19688 196.38126Q76.93125 196.38126 77.41563 195.67813Q77.91563 194.975 77.91563 192.86563Q77.91563 190.74063 77.41563 190.05313Q76.93125 189.35 76.18125 189.35Q75.4625 189.35 75.025 189.95938Q74.47813 190.74063 74.47813 192.86563Z" fill-rule="nonzero"/><path fill="#000000" d="M52.4 155.51666L53.509377 155.42291Q53.634377 156.23541 54.071877 156.64166Q54.525 157.04791 55.165627 157.04791Q55.915627 157.04791 56.446877 156.46979Q56.978127 155.89166 56.978127 154.95416Q56.978127 154.04791 56.4625 153.53229Q55.9625 153.00104 55.134377 153.00104Q54.634377 153.00104 54.2125 153.23541Q53.80625 153.46979 53.571877 153.82916L52.5875 153.70416L53.415627 149.29791L57.696877 149.29791L57.696877 150.29791L54.259377 150.29791L53.80625 152.61041Q54.571877 152.06354 55.415627 152.06354Q56.540627 152.06354 57.30625 152.84479Q58.0875 153.62604 58.0875 154.86041Q58.0875 156.01666 57.415627 156.87604Q56.5875 157.90729 55.165627 157.90729Q53.99375 157.90729 53.24375 157.25104Q52.509377 156.59479 52.4 155.51666ZM59.4 153.53229Q59.4 152.00104 59.7125 151.07916Q60.025 150.14166 60.634377 149.64166Q61.259377 149.14166 62.196877 149.14166Q62.884377 149.14166 63.4 149.42291Q63.93125 149.70416 64.275 150.23541Q64.61875 150.75104 64.80625 151.50104Q64.99375 152.25104 64.99375 153.53229Q64.99375 155.04791 64.68125 155.96979Q64.38438 156.89166 63.759377 157.40729Q63.15 157.90729 62.196877 157.90729Q60.9625 157.90729 60.24375 157.01666Q59.4 155.95416 59.4 153.53229ZM60.478127 153.53229Q60.478127 155.64166 60.978127 156.34479Q61.478127 157.04791 62.196877 157.04791Q62.93125 157.04791 63.415627 156.34479Q63.915627 155.64166 63.915627 153.53229Q63.915627 151.40729 63.415627 150.71979Q62.93125 150.01666 62.18125 150.01666Q61.4625 150.01666 61.025 150.62604Q60.478127 151.40729 60.478127 153.53229ZM66.4 153.53229Q66.4 152.00104 66.7125 151.07916Q67.025 150.14166 67.63438 149.64166Q68.25938 149.14166 69.19688 149.14166Q69.88438 149.14166 70.4 149.42291Q70.93125 149.70416 71.275 150.23541Q71.61875 150.75104 71.80625 151.50104Q71.99375 152.25104 71.99375 153.53229Q71.99375 155.04791 71.68125 155.96979Q71.38438 156.89166 70.75938 157.40729Q70.15 157.90729 69.19688 157.90729Q67.9625 157.90729 67.24375 157.01666Q66.4 155.95416 66.4 153.53229ZM67.47813 153.53229Q67.47813 155.64166 67.97813 156.34479Q68.47813 157.04791 69.19688 157.04791Q69.93125 157.04791 70.41563 156.34479Q70.91563 155.64166 70.91563 153.53229Q70.91563 151.40729 70.41563 150.71979Q69.93125 150.01666 69.18125 150.01666Q68.4625 150.01666 68.025 150.62604Q67.47813 151.40729 67.47813 153.53229ZM73.4 153.53229Q73.4 152.00104 73.7125 151.07916Q74.025 150.14166 74.63438 149.64166Q75.25938 149.14166 76.19688 149.14166Q76.88438 149.14166 77.4 149.42291Q77.93125 149.70416 78.275 150.23541Q78.61875 150.75104 78.80625 151.50104Q78.99375 152.25104 78.99375 153.53229Q78.99375 155.04791 78.68125 155.96979Q78.38438 156.89166 77.75938 157.40729Q77.15 157.90729 76.19688 157.90729Q74.9625 157.90729 74.24375 157.01666Q73.4 155.95416 73.4 153.53229ZM74.47813 153.53229Q74.47813 155.64166 74.97813 156.34479Q75.47813 157.04791 76.19688 157.04791Q76.93125 157.04791 77.41563 156.34479Q77.91563 155.64166 77.91563 153.53229Q77.91563 151.40729 77.41563 150.71979Q76.93125 150.01666 76.18125 150.01666Q75.4625 150.01666 75.025 150.62604Q74.47813 151.40729 74.47813 153.53229Z" fill-rule="nonzero"/><path fill="#000000" d="M49.36875 118.433334L48.321877 118.433334L48.321877 111.714584Q47.93125 112.07396 47.30625 112.44896Q46.696877 112.808334 46.2125 112.98021L46.2125 111.964584Q47.0875 111.54271 47.74375 110.964584Q48.415627 110.370834 48.696877 109.808334L49.36875 109.808334L49.36875 118.433334ZM52.4 114.19896Q52.4 112.66771 52.7125 111.745834Q53.025 110.808334 53.634377 110.308334Q54.259377 109.808334 55.196877 109.808334Q55.884377 109.808334 56.4 110.089584Q56.93125 110.370834 57.275 110.902084Q57.61875 111.41771 57.80625 112.16771Q57.99375 112.91771 57.99375 114.19896Q57.99375 115.714584 57.68125 116.63646Q57.384377 117.558334 56.759377 118.07396Q56.15 118.57396 55.196877 118.57396Q53.9625 118.57396 53.24375 117.683334Q52.4 116.620834 52.4 114.19896ZM53.478127 114.19896Q53.478127 116.308334 53.978127 117.01146Q54.478127 117.714584 55.196877 117.714584Q55.93125 117.714584 56.415627 117.01146Q56.915627 116.308334 56.915627 114.19896Q56.915627 112.07396 56.415627 111.38646Q55.93125 110.683334 55.18125 110.683334Q54.4625 110.683334 54.025 111.29271Q53.478127 112.07396 53.478127 114.19896ZM59.4 114.19896Q59.4 112.66771 59.7125 111.745834Q60.025 110.808334 60.634377 110.308334Q61.259377 109.808334 62.196877 109.808334Q62.884377 109.808334 63.4 110.089584Q63.93125 110.370834 64.275 110.902084Q64.61875 111.41771 64.80625 112.16771Q64.99375 112.91771 64.99375 114.19896Q64.99375 115.714584 64.68125 116.63646Q64.38438 117.558334 63.759377 118.07396Q63.15 118.57396 62.196877 118.57396Q60.9625 118.57396 60.24375 117.683334Q59.4 116.620834 59.4 114.19896ZM60.478127 114.19896Q60.478127 116.308334 60.978127 117.01146Q61.478127 117.714584 62.196877 117.714584Q62.93125 117.714584 63.415627 117.01146Q63.915627 116.308334 63.915627 114.19896Q63.915627 112.07396 63.415627 111.38646Q62.93125 110.683334 62.18125 110.683334Q61.4625 110.683334 61.025 111.29271Q60.478127 112.07396 60.478127 114.19896ZM66.4 114.19896Q66.4 112.66771 66.7125 111.745834Q67.025 110.808334 67.63438 110.308334Q68.25938 109.808334 69.19688 109.808334Q69.88438 109.808334 70.4 110.089584Q70.93125 110.370834 71.275 110.902084Q71.61875 111.41771 71.80625 112.16771Q71.99375 112.91771 71.99375 114.19896Q71.99375 115.714584 71.68125 116.63646Q71.38438 117.558334 70.75938 118.07396Q70.15 118.57396 69.19688 118.57396Q67.9625 118.57396 67.24375 117.683334Q66.4 116.620834 66.4 114.19896ZM67.47813 114.19896Q67.47813 116.308334 67.97813 117.01146Q68.47813 117.714584 69.19688 117.714584Q69.93125 117.714584 70.41563 117.01146Q70.91563 116.308334 70.91563 114.19896Q70.91563 112.07396 70.41563 111.38646Q69.93125 110.683334 69.18125 110.683334Q68.4625 110.683334 68.025 111.29271Q67.47813 112.07396 67.47813 114.19896ZM73.4 114.19896Q73.4 112.66771 73.7125 111.745834Q74.025 110.808334 74.63438 110.308334Q75.25938 109.808334 76.19688 109.808334Q76.88438 109.808334 77.4 110.089584Q77.93125 110.370834 78.275 110.902084Q78.61875 111.41771 78.80625 112.16771Q78.99375 112.91771 78.99375 114.19896Q78.99375 115.714584 78.68125 116.63646Q78.38438 117.558334 77.75938 118.07396Q77.15 118.57396 76.19688 118.57396Q74.9625 118.57396 74.24375 117.683334Q73.4 116.620834 73.4 114.19896ZM74.47813 114.19896Q74.47813 116.308334 74.97813 117.01146Q75.47813 117.714584 76.19688 117.714584Q76.93125 117.714584 77.41563 117.01146Q77.91563 116.308334 77.91563 114.19896Q77.91563 112.07396 77.41563 111.38646Q76.93125 110.683334 76.18125 110.683334Q75.4625 110.683334 75.025 111.29271Q74.47813 112.07396 74.47813 114.19896Z" fill-rule="nonzero"/><path fill="#000000" d="M49.36875 79.1L48.321877 79.1L48.321877 72.38125Q47.93125 72.74062 47.30625 73.11562Q46.696877 73.475 46.2125 73.64687L46.2125 72.63125Q47.0875 72.20937 47.74375 71.63125Q48.415627 71.0375 48.696877 70.475L49.36875 70.475L49.36875 79.1ZM52.4 76.85L53.509377 76.75625Q53.634377 77.56875 54.071877 77.975Q54.525 78.38125 55.165627 78.38125Q55.915627 78.38125 56.446877 77.80312Q56.978127 77.225 56.978127 76.2875Q56.978127 75.38125 56.4625 74.86562Q55.9625 74.33437 55.134377 74.33437Q54.634377 74.33437 54.2125 74.56875Q53.80625 74.80312 53.571877 75.1625L52.5875 75.0375L53.415627 70.63125L57.696877 70.63125L57.696877 71.63125L54.259377 71.63125L53.80625 73.94375Q54.571877 73.39687 55.415627 73.39687Q56.540627 73.39687 57.30625 74.17812Q58.0875 74.95937 58.0875 76.19375Q58.0875 77.35 57.415627 78.20937Q56.5875 79.24062 55.165627 79.24062Q53.99375 79.24062 53.24375 78.58437Q52.509377 77.92812 52.4 76.85ZM59.4 74.86562Q59.4 73.33437 59.7125 72.4125Q60.025 71.475 60.634377 70.975Q61.259377 70.475 62.196877 70.475Q62.884377 70.475 63.4 70.75625Q63.93125 71.0375 64.275 71.56875Q64.61875 72.08437 64.80625 72.83437Q64.99375 73.58437 64.99375 74.86562Q64.99375 76.38125 64.68125 77.30312Q64.38438 78.225 63.759377 78.74062Q63.15 79.24062 62.196877 79.24062Q60.9625 79.24062 60.24375 78.35Q59.4 77.2875 59.4 74.86562ZM60.478127 74.86562Q60.478127 76.975 60.978127 77.67812Q61.478127 78.38125 62.196877 78.38125Q62.93125 78.38125 63.415627 77.67812Q63.915627 76.975 63.915627 74.86562Q63.915627 72.74062 63.415627 72.05312Q62.93125 71.35 62.18125 71.35Q61.4625 71.35 61.025 71.95937Q60.478127 72.74062 60.478127 74.86562ZM66.4 74.86562Q66.4 73.33437 66.7125 72.4125Q67.025 71.475 67.63438 70.975Q68.25938 70.475 69.19688 70.475Q69.88438 70.475 70.4 70.75625Q70.93125 71.0375 71.275 71.56875Q71.61875 72.08437 71.80625 72.83437Q71.99375 73.58437 71.99375 74.86562Q71.99375 76.38125 71.68125 77.30312Q71.38438 78.225 70.75938 78.74062Q70.15 79.24062 69.19688 79.24062Q67.9625 79.24062 67.24375 78.35Q66.4 77.2875 66.4 74.86562ZM67.47813 74.86562Q67.47813 76.975 67.97813 77.67812Q68.47813 78.38125 69.19688 78.38125Q69.93125 78.38125 70.41563 77.67812Q70.91563 76.975 70.91563 74.86562Q70.91563 72.74062 70.41563 72.05312Q69.93125 71.35 69.18125 71.35Q68.4625 71.35 68.025 71.95937Q67.47813 72.74062 67.47813 74.86562ZM73.4 74.86562Q73.4 73.33437 73.7125 72.4125Q74.025 71.475 74.63438 70.975Q75.25938 70.475 76.19688 70.475Q76.88438 70.475 77.4 70.75625Q77.93125 71.0375 78.275 71.56875Q78.61875 72.08437 78.80625 72.83437Q78.99375 73.58437 78.99375 74.86562Q78.99375 76.38125 78.68125 77.30312Q78.38438 78.225 77.75938 78.74062Q77.15 79.24062 76.19688 79.24062Q74.9625 79.24062 74.24375 78.35Q73.4 77.2875 73.4 74.86562ZM74.47813 74.86562Q74.47813 76.975 74.97813 77.67812Q75.47813 78.38125 76.19688 78.38125Q76.93125 78.38125 77.41563 77.67812Q77.91563 76.975 77.91563 74.86562Q77.91563 72.74062 77.41563 72.05312Q76.93125 71.35 76.18125 71.35Q75.4625 71.35 75.025 71.95937Q74.47813 72.74062 74.47813 74.86562Z" fill-rule="nonzero"/><path fill="#000000" d="M133.67564 210.1L132.62877 210.1L132.62877 203.38126Q132.23814 203.74063 131.61314 204.11563Q131.00377 204.475 130.5194 204.64688L130.5194 203.63126Q131.3944 203.20938 132.05064 202.63126Q132.72252 202.0375 133.00377 201.475L133.67564 201.475L133.67564 210.1ZM136.7069 205.86563Q136.7069 204.33438 137.0194 203.4125Q137.3319 202.475 137.94127 201.975Q138.56627 201.475 139.50377 201.475Q140.19127 201.475 140.7069 201.75626Q141.23814 202.0375 141.5819 202.56876Q141.92564 203.08438 142.11314 203.83438Q142.30064 204.58438 142.30064 205.86563Q142.30064 207.38126 141.98814 208.30313Q141.69127 209.225 141.06627 209.74063Q140.4569 210.24063 139.50377 210.24063Q138.2694 210.24063 137.55064 209.35Q136.7069 208.2875 136.7069 205.86563ZM137.78502 205.86563Q137.78502 207.975 138.28502 208.67813Q138.78502 209.38126 139.50377 209.38126Q140.23814 209.38126 140.72252 208.67813Q141.22252 207.975 141.22252 205.86563Q141.22252 203.74063 140.72252 203.05313Q140.23814 202.35 139.48814 202.35Q138.7694 202.35 138.3319 202.95938Q137.78502 203.74063 137.78502 205.86563Z" fill-rule="nonzero"/><path fill="#000000" d="M209.7825 209.08438L209.7825 210.1L204.095 210.1Q204.095 209.725 204.22 209.36563Q204.43875 208.7875 204.9075 208.225Q205.39188 207.6625 206.29813 206.92813Q207.70438 205.77188 208.18875 205.1Q208.68875 204.42813 208.68875 203.83438Q208.68875 203.20938 208.23563 202.7875Q207.7825 202.35 207.06375 202.35Q206.29813 202.35 205.845 202.80313Q205.39188 203.25626 205.37625 204.06876L204.29813 203.95938Q204.4075 202.74063 205.12625 202.11563Q205.86063 201.475 207.095 201.475Q208.32938 201.475 209.04813 202.1625Q209.76688 202.85 209.76688 203.86563Q209.76688 204.38126 209.54813 204.88126Q209.345 205.36563 208.845 205.92813Q208.36063 206.475 207.23563 207.42813Q206.2825 208.225 206.00125 208.52188Q205.73563 208.80313 205.56375 209.08438L209.7825 209.08438ZM211.23563 205.86563Q211.23563 204.33438 211.54813 203.4125Q211.86063 202.475 212.47 201.975Q213.095 201.475 214.0325 201.475Q214.72 201.475 215.23563 201.75626Q215.76688 202.0375 216.11063 202.56876Q216.45438 203.08438 216.64188 203.83438Q216.82938 204.58438 216.82938 205.86563Q216.82938 207.38126 216.51688 208.30313Q216.22 209.225 215.595 209.74063Q214.98563 210.24063 214.0325 210.24063Q212.79813 210.24063 212.07938 209.35Q211.23563 208.2875 211.23563 205.86563ZM212.31375 205.86563Q212.31375 207.975 212.81375 208.67813Q213.31375 209.38126 214.0325 209.38126Q214.76688 209.38126 215.25125 208.67813Q215.75125 207.975 215.75125 205.86563Q215.75125 203.74063 215.25125 203.05313Q214.76688 202.35 214.01688 202.35Q213.29813 202.35 212.86063 202.95938Q212.31375 203.74063 212.31375 205.86563Z" fill-rule="nonzero"/><path fill="#000000" d="M282.13937 210.1L282.13937 208.0375L278.42062 208.0375L278.42062 207.06876L282.3425 201.50626L283.20187 201.50626L283.20187 207.06876L284.35812 207.06876L284.35812 208.0375L283.20187 208.0375L283.20187 210.1L282.13937 210.1ZM282.13937 207.06876L282.13937 203.20938L279.45187 207.06876L282.13937 207.06876ZM285.76437 205.86563Q285.76437 204.33438 286.07687 203.4125Q286.38937 202.475 286.99875 201.975Q287.62375 201.475 288.56125 201.475Q289.24875 201.475 289.76437 201.75626Q290.29562 202.0375 290.63937 202.56876Q290.98312 203.08438 291.17062 203.83438Q291.35812 204.58438 291.35812 205.86563Q291.35812 207.38126 291.04562 208.30313Q290.74875 209.225 290.12375 209.74063Q289.51437 210.24063 288.56125 210.24063Q287.32687 210.24063 286.60812 209.35Q285.76437 208.2875 285.76437 205.86563ZM286.8425 205.86563Q286.8425 207.975 287.3425 208.67813Q287.8425 209.38126 288.56125 209.38126Q289.29562 209.38126 289.78 208.67813Q290.28 207.975 290.28 205.86563Q290.28 203.74063 289.78 203.05313Q289.29562 202.35 288.54562 202.35Q287.82687 202.35 287.38937 202.95938Q286.8425 203.74063 286.8425 205.86563Z" fill-rule="nonzero"/><path fill="#000000" d="M354.9181 205.44376Q354.26184 205.19376 353.93372 204.75626Q353.62122 204.30313 353.62122 203.69376Q353.62122 202.75626 354.2931 202.11563Q354.9806 201.475 356.08997 201.475Q357.21497 201.475 357.90247 202.13126Q358.58997 202.7875 358.58997 203.725Q358.58997 204.31876 358.27747 204.75626Q357.96497 205.19376 357.32434 205.44376Q358.12122 205.69376 358.52747 206.27188Q358.93372 206.85 358.93372 207.64688Q358.93372 208.74063 358.15247 209.49063Q357.38684 210.24063 356.1056 210.24063Q354.83997 210.24063 354.05872 209.49063Q353.27747 208.74063 353.27747 207.61563Q353.27747 206.77188 353.69934 206.20938Q354.13684 205.64688 354.9181 205.44376ZM354.69934 203.64688Q354.69934 204.25626 355.08997 204.64688Q355.49622 205.0375 356.12122 205.0375Q356.7306 205.0375 357.12122 204.6625Q357.51184 204.27188 357.51184 203.70938Q357.51184 203.13126 357.1056 202.74063Q356.69934 202.33438 356.1056 202.33438Q355.49622 202.33438 355.08997 202.725Q354.69934 203.11563 354.69934 203.64688ZM354.37122 207.61563Q354.37122 208.06876 354.57434 208.49063Q354.7931 208.9125 355.21497 209.14688Q355.63684 209.38126 356.12122 209.38126Q356.87122 209.38126 357.3556 208.89688Q357.8556 208.4125 357.8556 207.6625Q357.8556 206.89688 357.3556 206.39688Q356.8556 205.89688 356.08997 205.89688Q355.33997 205.89688 354.8556 206.39688Q354.37122 206.88126 354.37122 207.61563ZM360.2931 205.86563Q360.2931 204.33438 360.6056 203.4125Q360.9181 202.475 361.52747 201.975Q362.15247 201.475 363.08997 201.475Q363.77747 201.475 364.2931 201.75626Q364.82434 202.0375 365.1681 202.56876Q365.51184 203.08438 365.69934 203.83438Q365.88684 204.58438 365.88684 205.86563Q365.88684 207.38126 365.57434 208.30313Q365.27747 209.225 364.65247 209.74063Q364.0431 210.24063 363.08997 210.24063Q361.8556 210.24063 361.13684 209.35Q360.2931 208.2875 360.2931 205.86563ZM361.37122 205.86563Q361.37122 207.975 361.87122 208.67813Q362.37122 209.38126 363.08997 209.38126Q363.82434 209.38126 364.30872 208.67813Q364.80872 207.975 364.80872 205.86563Q364.80872 203.74063 364.30872 203.05313Q363.82434 202.35 363.07434 202.35Q362.3556 202.35 361.9181 202.95938Q361.37122 203.74063 361.37122 205.86563Z" fill-rule="nonzero"/><path fill="#4285f4" d="M131.0 47.5C131.0 46.947716 131.44771 46.5 132.0 46.5L142.0 46.5C142.55229 46.5 143.0 46.947716 143.0 47.5L143.0 57.5C143.0 58.052284 142.55229 58.5 142.0 58.5L132.0 58.5C131.44771 58.5 131.0 58.052284 131.0 57.5Z" fill-rule="nonzero"/><path fill="#1a1a1a" d="M152.76562 56.5L151.78125 56.5L151.78125 47.90625L152.84375 47.90625L152.84375 50.96875Q153.51562 50.140625 154.54688 50.140625Q155.125 50.140625 155.625 50.375Q156.14062 50.59375 156.46875 51.015625Q156.8125 51.4375 157.0 52.03125Q157.1875 52.625 157.1875 53.296875Q157.1875 54.890625 156.39062 55.765625Q155.59375 56.640625 154.5 56.640625Q153.39062 56.640625 152.76562 55.71875L152.76562 56.5ZM152.75 53.34375Q152.75 54.453125 153.0625 54.953125Q153.5625 55.765625 154.40625 55.765625Q155.09375 55.765625 155.59375 55.171875Q156.10938 54.578125 156.10938 53.375Q156.10938 52.15625 155.625 51.578125Q155.14062 51.0 154.45312 51.0Q153.76562 51.0 153.25 51.609375Q152.75 52.203125 152.75 53.34375ZM159.04688 56.5L159.04688 51.09375L158.10938 51.09375L158.10938 50.28125L159.04688 50.28125L159.04688 49.609375Q159.04688 48.984375 159.15625 48.6875Q159.3125 48.265625 159.6875 48.015625Q160.07812 47.765625 160.76562 47.765625Q161.21875 47.765625 161.75 47.875L161.59375 48.78125Q161.26562 48.734375 160.96875 48.734375Q160.48438 48.734375 160.28125 48.9375Q160.09375 49.140625 160.09375 49.703125L160.09375 50.28125L161.3125 50.28125L161.3125 51.09375L160.09375 51.09375L160.09375 56.5L159.04688 56.5ZM161.375 54.640625L162.40625 54.484375Q162.5 55.109375 162.89062 55.4375Q163.29688 55.765625 164.03125 55.765625Q164.75 55.765625 165.09375 55.484375Q165.45312 55.1875 165.45312 54.78125Q165.45312 54.421875 165.14062 54.21875Q164.92188 54.078125 164.0625 53.859375Q162.90625 53.5625 162.45312 53.359375Q162.01562 53.140625 161.78125 52.765625Q161.54688 52.390625 161.54688 51.921875Q161.54688 51.515625 161.73438 51.15625Q161.92188 50.796875 162.25 50.5625Q162.5 50.390625 162.92188 50.265625Q163.34375 50.140625 163.84375 50.140625Q164.5625 50.140625 165.10938 50.359375Q165.67188 50.5625 165.9375 50.921875Q166.20312 51.28125 166.29688 51.875L165.26562 52.015625Q165.20312 51.546875 164.85938 51.28125Q164.53125 51.0 163.90625 51.0Q163.1875 51.0 162.875 51.25Q162.5625 51.484375 162.5625 51.8125Q162.5625 52.015625 162.6875 52.171875Q162.82812 52.34375 163.09375 52.453125Q163.25 52.515625 164.03125 52.71875Q165.15625 53.03125 165.59375 53.21875Q166.03125 53.40625 166.28125 53.765625Q166.53125 54.125 166.53125 54.671875Q166.53125 55.203125 166.21875 55.671875Q165.92188 56.125 165.34375 56.390625Q164.76562 56.640625 164.03125 56.640625Q162.8125 56.640625 162.17188 56.140625Q161.54688 55.625 161.375 54.640625Z" fill-rule="nonzero"/><path fill="#ea4335" d="M184.0 47.5C184.0 46.947716 184.44771 46.5 185.0 46.5L195.0 46.5C195.55229 46.5 196.0 46.947716 196.0 47.5L196.0 57.5C196.0 58.052284 195.55229 58.5 195.0 58.5L185.0 58.5C184.44771 58.5 184.0 58.052284 184.0 57.5Z" fill-rule="nonzero"/><path fill="#1a1a1a" d="M204.79688 56.5L204.79688 50.28125L205.73438 50.28125L205.73438 51.15625Q206.03125 50.6875 206.51562 50.421875Q207.0 50.140625 207.625 50.140625Q208.3125 50.140625 208.75 50.421875Q209.20312 50.703125 209.375 51.21875Q210.125 50.140625 211.29688 50.140625Q212.23438 50.140625 212.71875 50.65625Q213.21875 51.15625 213.21875 52.234375L213.21875 56.5L212.17188 56.5L212.17188 52.578125Q212.17188 51.953125 212.0625 51.671875Q211.96875 51.390625 211.70312 51.21875Q211.4375 51.046875 211.0625 51.046875Q210.40625 51.046875 209.96875 51.484375Q209.54688 51.921875 209.54688 52.890625L209.54688 56.5L208.48438 56.5L208.48438 52.453125Q208.48438 51.75 208.21875 51.40625Q207.96875 51.046875 207.39062 51.046875Q206.9375 51.046875 206.5625 51.28125Q206.1875 51.515625 206.01562 51.96875Q205.84375 52.421875 205.84375 53.265625L205.84375 56.5L204.79688 56.5ZM219.85938 55.734375Q219.26562 56.234375 218.71875 56.4375Q218.1875 56.640625 217.5625 56.640625Q216.53125 56.640625 215.98438 56.140625Q215.4375 55.640625 215.4375 54.859375Q215.4375 54.40625 215.64062 54.03125Q215.84375 53.640625 216.1875 53.421875Q216.53125 53.1875 216.95312 53.078125Q217.25 52.984375 217.89062 52.90625Q219.15625 52.765625 219.76562 52.546875Q219.76562 52.328125 219.76562 52.28125Q219.76562 51.625 219.46875 51.359375Q219.0625 51.015625 218.26562 51.015625Q217.53125 51.015625 217.17188 51.28125Q216.8125 51.53125 216.64062 52.1875L215.60938 52.046875Q215.75 51.390625 216.07812 50.984375Q216.40625 50.578125 217.01562 50.359375Q217.625 50.140625 218.42188 50.140625Q219.21875 50.140625 219.71875 50.328125Q220.21875 50.515625 220.45312 50.796875Q220.6875 51.078125 220.78125 51.515625Q220.82812 51.78125 220.82812 52.484375L220.82812 53.890625Q220.82812 55.359375 220.89062 55.75Q220.96875 56.140625 221.17188 56.5L220.0625 56.5Q219.90625 56.171875 219.85938 55.734375ZM219.76562 53.375Q219.1875 53.609375 218.04688 53.78125Q217.39062 53.875 217.125 54.0Q216.85938 54.109375 216.70312 54.328125Q216.5625 54.546875 216.5625 54.828125Q216.5625 55.25 216.875 55.53125Q217.20312 55.8125 217.8125 55.8125Q218.42188 55.8125 218.89062 55.546875Q219.375 55.28125 219.59375 54.8125Q219.76562 54.453125 219.76562 53.765625L219.76562 53.375ZM222.79688 56.5L222.79688 50.28125L223.73438 50.28125L223.73438 51.15625Q224.42188 50.140625 225.71875 50.140625Q226.28125 50.140625 226.75 50.34375Q227.23438 50.546875 227.46875 50.875Q227.70312 51.203125 227.79688 51.640625Q227.84375 51.9375 227.84375 52.671875L227.84375 56.5L226.79688 56.5L226.79688 52.71875Q226.79688 52.0625 226.67188 51.75Q226.54688 51.4375 226.23438 51.25Q225.92188 51.046875 225.5 51.046875Q224.82812 51.046875 224.32812 51.484375Q223.84375 51.90625 223.84375 53.09375L223.84375 56.5L222.79688 56.5ZM229.79688 56.5L229.79688 47.90625L230.84375 47.90625L230.84375 50.984375Q231.57812 50.140625 232.70312 50.140625Q233.40625 50.140625 233.90625 50.421875Q234.42188 50.6875 234.64062 51.171875Q234.85938 51.640625 234.85938 52.5625L234.85938 56.5L233.8125 56.5L233.8125 52.5625Q233.8125 51.765625 233.46875 51.40625Q233.125 51.046875 232.5 51.046875Q232.03125 51.046875 231.60938 51.296875Q231.20312 51.53125 231.01562 51.953125Q230.84375 52.359375 230.84375 53.09375L230.84375 56.5L229.79688 56.5Z" fill-rule="nonzero"/><path fill="#fbbc04" d="M252.0 47.5C252.0 46.947716 252.44771 46.5 253.0 46.5L263.0 46.5C263.55228 46.5 264.0 46.947716 264.0 47.5L264.0 57.5C264.0 58.052284 263.55228 58.5 263.0 58.5L253.0 58.5C252.44771 58.5 252.0 58.052284 252.0 57.5Z" fill-rule="nonzero"/><path fill="#1a1a1a" d="M277.04688 54.5L278.14062 54.625Q277.89062 55.578125 277.1875 56.109375Q276.48438 56.640625 275.40625 56.640625Q274.04688 56.640625 273.23438 55.796875Q272.4375 54.953125 272.4375 53.4375Q272.4375 51.875 273.25 51.015625Q274.0625 50.140625 275.34375 50.140625Q276.59375 50.140625 277.375 50.984375Q278.17188 51.828125 278.17188 53.375Q278.17188 53.46875 278.17188 53.65625L273.53125 53.65625Q273.59375 54.6875 274.10938 55.234375Q274.625 55.765625 275.40625 55.765625Q275.98438 55.765625 276.39062 55.46875Q276.8125 55.15625 277.04688 54.5ZM273.59375 52.796875L277.0625 52.796875Q277.0 52.0 276.67188 51.609375Q276.15625 51.0 275.35938 51.0Q274.625 51.0 274.125 51.484375Q273.64062 51.96875 273.59375 52.796875ZM283.875 56.5L283.875 55.578125Q283.14062 56.640625 281.89062 56.640625Q281.34375 56.640625 280.85938 56.4375Q280.39062 56.21875 280.15625 55.90625Q279.92188 55.578125 279.82812 55.109375Q279.76562 54.8125 279.76562 54.125L279.76562 50.28125L280.82812 50.28125L280.82812 53.734375Q280.82812 54.546875 280.89062 54.84375Q280.98438 55.25 281.29688 55.5Q281.625 55.734375 282.10938 55.734375Q282.57812 55.734375 282.98438 55.5Q283.40625 55.25 283.57812 54.828125Q283.76562 54.40625 283.76562 53.609375L283.76562 50.28125L284.8125 50.28125L284.8125 56.5L283.875 56.5ZM290.85938 54.21875L291.89062 54.359375Q291.71875 55.421875 291.01562 56.03125Q290.3125 56.640625 289.29688 56.640625Q288.01562 56.640625 287.23438 55.8125Q286.46875 54.96875 286.46875 53.40625Q286.46875 52.40625 286.79688 51.65625Q287.14062 50.890625 287.8125 50.515625Q288.5 50.140625 289.3125 50.140625Q290.3125 50.140625 290.95312 50.65625Q291.60938 51.15625 291.79688 52.109375L290.76562 52.265625Q290.625 51.640625 290.25 51.328125Q289.875 51.0 289.34375 51.0Q288.54688 51.0 288.04688 51.578125Q287.54688 52.140625 287.54688 53.375Q287.54688 54.640625 288.03125 55.203125Q288.51562 55.765625 289.28125 55.765625Q289.90625 55.765625 290.3125 55.390625Q290.73438 55.015625 290.85938 54.21875Z" fill-rule="nonzero"/><path fill="#757575" d="M12.86875 31.9L18.36875 17.5875L20.415625 17.5875L26.275 31.9L24.11875 31.9L22.446875 27.55625L16.4625 27.55625L14.884375 31.9L12.86875 31.9ZM17.009375 26.025L21.853125 26.025L20.36875 22.05625Q19.68125 20.24375 19.353125 19.0875Q19.071875 20.4625 18.571875 21.821875L17.009375 26.025ZM33.99375 28.103125L35.7125 28.321875Q35.43125 30.11875 34.259377 31.134375Q33.103127 32.134377 31.4 32.134377Q29.275 32.134377 27.978125 30.74375Q26.68125 29.353125 26.68125 26.759375Q26.68125 25.071875 27.228125 23.821875Q27.790625 22.55625 28.93125 21.93125Q30.071875 21.290625 31.415625 21.290625Q33.103127 21.290625 34.165627 22.15Q35.24375 23.009375 35.55625 24.571875L33.8375 24.8375Q33.603127 23.790625 32.978127 23.275Q32.353127 22.74375 31.478125 22.74375Q30.15 22.74375 29.321875 23.696875Q28.49375 24.65 28.49375 26.696875Q28.49375 28.790625 29.290625 29.74375Q30.0875 30.68125 31.384375 30.68125Q32.415627 30.68125 33.103127 30.05625Q33.80625 29.415625 33.99375 28.103125ZM43.99375 28.103125L45.7125 28.321875Q45.43125 30.11875 44.259377 31.134375Q43.103127 32.134377 41.4 32.134377Q39.275 32.134377 37.978127 30.74375Q36.68125 29.353125 36.68125 26.759375Q36.68125 25.071875 37.228127 23.821875Q37.790627 22.55625 38.93125 21.93125Q40.071877 21.290625 41.415627 21.290625Q43.103127 21.290625 44.165627 22.15Q45.24375 23.009375 45.55625 24.571875L43.8375 24.8375Q43.603127 23.790625 42.978127 23.275Q42.353127 22.74375 41.478127 22.74375Q40.15 22.74375 39.321877 23.696875Q38.49375 24.65 38.49375 26.696875Q38.49375 28.790625 39.290627 29.74375Q40.0875 30.68125 41.384377 30.68125Q42.415627 30.68125 43.103127 30.05625Q43.80625 29.415625 43.99375 28.103125ZM54.009377 31.9L54.009377 30.36875Q52.80625 32.134377 50.728127 32.134377Q49.80625 32.134377 49.009377 31.790625Q48.2125 31.43125 47.821877 30.9Q47.446877 30.36875 47.290627 29.5875Q47.18125 29.071875 47.18125 27.946875L47.18125 21.525L48.93125 21.525L48.93125 27.275Q48.93125 28.65 49.040627 29.134375Q49.2125 29.821875 49.74375 30.228125Q50.290627 30.61875 51.071877 30.61875Q51.86875 30.61875 52.55625 30.2125Q53.259377 29.80625 53.540627 29.11875Q53.8375 28.415625 53.8375 27.0875L53.8375 21.525L55.5875 21.525L55.5875 31.9L54.009377 31.9ZM57.196877 31.9L57.196877 21.525L58.775 21.525L58.775 23.103125Q59.384377 21.99375 59.9 21.65Q60.415627 21.290625 61.025 21.290625Q61.915627 21.290625 62.8375 21.853125L62.228127 23.49375Q61.5875 23.103125 60.946877 23.103125Q60.36875 23.103125 59.9 23.4625Q59.446877 23.80625 59.24375 24.415625Q58.9625 25.353125 58.9625 26.4625L58.9625 31.9L57.196877 31.9ZM70.99375 30.61875Q70.00938 31.446875 69.10313 31.790625Q68.19688 32.134377 67.16563 32.134377Q65.4625 32.134377 64.54063 31.30625Q63.61875 30.4625 63.61875 29.165625Q63.61875 28.4 63.9625 27.775Q64.32188 27.15 64.88438 26.775Q65.44688 26.384375 66.15 26.18125Q66.66563 26.05625 67.7125 25.915625Q69.8375 25.665625 70.8375 25.321875Q70.85313 24.9625 70.85313 24.853125Q70.85313 23.790625 70.35313 23.3375Q69.68125 22.74375 68.35313 22.74375Q67.10313 22.74375 66.50938 23.18125Q65.93125 23.61875 65.65 24.728125L63.93125 24.49375Q64.16563 23.384375 64.69688 22.7125Q65.22813 22.025 66.24375 21.665625Q67.25938 21.290625 68.60313 21.290625Q69.93125 21.290625 70.75938 21.603125Q71.5875 21.915625 71.97813 22.4Q72.36875 22.86875 72.525 23.5875Q72.61875 24.040625 72.61875 25.2125L72.61875 27.55625Q72.61875 30.009375 72.72813 30.665625Q72.8375 31.30625 73.18125 31.9L71.3375 31.9Q71.07188 31.353125 70.99375 30.61875ZM70.8375 26.696875Q69.88438 27.0875 67.9625 27.353125Q66.88438 27.509375 66.43125 27.7125Q65.99375 27.9 65.74375 28.275Q65.49375 28.65 65.49375 29.11875Q65.49375 29.821875 66.025 30.290625Q66.55625 30.759375 67.5875 30.759375Q68.60313 30.759375 69.38438 30.321875Q70.18125 29.86875 70.55625 29.103125Q70.8375 28.49375 70.8375 27.3375L70.8375 26.696875ZM81.99375 28.103125L83.7125 28.321875Q83.43125 30.11875 82.25938 31.134375Q81.10313 32.134377 79.4 32.134377Q77.275 32.134377 75.97813 30.74375Q74.68125 29.353125 74.68125 26.759375Q74.68125 25.071875 75.22813 23.821875Q75.79063 22.55625 76.93125 21.93125Q78.07188 21.290625 79.41563 21.290625Q81.10313 21.290625 82.16563 22.15Q83.24375 23.009375 83.55625 24.571875L81.8375 24.8375Q81.60313 23.790625 80.97813 23.275Q80.35313 22.74375 79.47813 22.74375Q78.15 22.74375 77.32188 23.696875Q76.49375 24.65 76.49375 26.696875Q76.49375 28.790625 77.29063 29.74375Q78.0875 30.68125 79.38438 30.68125Q80.41563 30.68125 81.10313 30.05625Q81.80625 29.415625 81.99375 28.103125ZM85.13438 35.9L84.94688 34.24375Q85.525 34.4 85.94688 34.4Q86.54063 34.4 86.88438 34.196877Q87.24375 34.009377 87.4625 33.665627Q87.63438 33.4 88.00938 32.353127Q88.05625 32.196877 88.16563 31.915625L84.22813 21.525L86.11875 21.525L88.275 27.540625Q88.69688 28.68125 89.025 29.93125Q89.3375 28.728125 89.74375 27.571875L91.9625 21.525L93.72813 21.525L89.775 32.071877Q89.15 33.790627 88.79063 34.43125Q88.32188 35.30625 87.7125 35.696877Q87.11875 36.103127 86.275 36.103127Q85.75938 36.103127 85.13438 35.9Z" fill-rule="nonzero"/></svg>