<svg version="1.1" viewBox="0.0 0.0 415.0 258.0" fill="none" stroke="none" stroke-linecap="square" stroke-miterlimit="10" width="415" height="258" xmlns:xlink="http://www.w3.org/1999/xlink" xmlns="http://www.w3.org/2000/svg"><path fill="#ffffff" d="M0 0L415.0 0L415.0 258.0L0 258.0L0 0Z" fill-rule="nonzero"/><path stroke="#cccccc" stroke-width="1.0" stroke-linecap="butt" d="M125.5 75.5L125.5 193.5" fill-rule="nonzero"/><path stroke="#cccccc" stroke-width="1.0" stroke-linecap="butt" d="M217.5 75.5L217.5 193.5" fill-rule="nonzero"/><path stroke="#cccccc" stroke-width="1.0" stroke-linecap="butt" d="M309.5 75.5L309.5 193.5" fill-rule="nonzero"/><path stroke="#cccccc" stroke-width="1.0" stroke-linecap="butt" d="M402.5 75.5L402.5 193.5" fill-rule="nonzero"/><path stroke="#333333" stroke-width="1.0" stroke-linecap="butt" d="M78.5 193.5L402.5 193.5" fill-rule="nonzero"/><path stroke="#cccccc" stroke-width="1.0" stroke-linecap="butt" d="M78.5 163.5L402.5 163.5" fill-rule="nonzero"/><path stroke="#cccccc" stroke-width="1.0" stroke-linecap="butt" d="M78.5 134.5L402.5 134.5" fill-rule="nonzero"/><path stroke="#cccccc" stroke-width="1.0" stroke-linecap="butt" d="M78.5 104.5L402.5 104.5" fill-rule="nonzero"/><path stroke="#cccccc" stroke-width="1.0" stroke-linecap="butt" d="M78.5 75.5L402.5 75.5" fill-rule="nonzero"/><clipPath id="id_0"><path d="M78.9 75.1L402.1 75.1L402.1 193.1L78.9 193.1L78.9 75.1Z" clip-rule="nonzero"/></clipPath><path stroke="#4285f4" stroke-width="2.0" stroke-linecap="butt" clip-path="url(#id_0)" d="M78.9 191.271C78.9 191.271 109.680954 191.48242 125.07143 190.209C140.4619 188.93558 186.63333 186.44775 217.41429 177.052C248.19524 167.65625 402.1 90.617 402.1 90.617" fill-rule="nonzero"/><path stroke="#ea4335" stroke-width="2.0" stroke-linecap="butt" clip-path="url(#id_0)" d="M78.9 193.1C78.9 193.1 109.680954 193.06067 125.07143 193.041C140.4619 193.02133 186.63333 192.97217 217.41429 192.923C248.19524 192.87384 402.1 192.569 402.1 192.569" fill-rule="nonzero"/><path stroke="#fbbc04" stroke-width="2.0" stroke-linecap="butt" clip-path="url(#id_0)" d="M78.9 193.1C78.9 193.1 109.680954 193.01642 125.07143 192.982C140.4619 192.94759 186.63333 192.90825 217.41429 192.805C248.19524 192.70175 402.1 191.92 402.1 191.92" fill-rule="nonzero"/><path fill="#000000" fill-opacity="0.0" clip-path="url(#id_0)" d="M81.9 191.271C81.9 192.92786 80.556854 194.271 78.9 194.271C77.24315 194.271 75.9 192.92786 75.9 191.271C75.9 189.61415 77.24315 188.271 78.9 188.271C80.556854 188.271 81.9 189.61415 81.9 191.271Z" fill-rule="nonzero"/><path fill="#000000" fill-opacity="0.0" clip-path="url(#id_0)" d="M128.07143 190.209C128.07143 191.86586 126.72828 193.209 125.07143 193.209C123.41457 193.209 122.07143 191.86586 122.07143 190.209C122.07143 188.55214 123.41457 187.209 125.07143 187.209C126.72828 187.209 128.07143 188.55214 128.07143 190.209Z" fill-rule="nonzero"/><path fill="#000000" fill-opacity="0.0" clip-path="url(#id_0)" d="M220.41429 177.052C220.41429 178.70885 219.07114 180.052 217.41429 180.052C215.75743 180.052 214.41429 178.70885 214.41429 177.052C214.41429 175.39514 215.75743 174.052 217.41429 174.052C219.07114 174.052 220.41429 175.39514 220.41429 177.052Z" fill-rule="nonzero"/><path fill="#000000" fill-opacity="0.0" clip-path="url(#id_0)" d="M405.1 90.617C405.1 92.27386 403.75687 93.617 402.1 93.617C400.44315 93.617 399.1 92.27386 399.1 90.617C399.1 88.960144 400.44315 87.617 402.1 87.617C403.75687 87.617 405.1 88.960144 405.1 90.617Z" fill-rule="nonzero"/><path fill="#000000" fill-opacity="0.0" clip-path="url(#id_0)" d="M81.9 193.1C81.9 194.75685 80.556854 196.1 78.9 196.1C77.24315 196.1 75.9 194.75685 75.9 193.1C75.9 191.44315 77.24315 190.1 78.9 190.1C80.556854 190.1 81.9 191.44315 81.9 193.1Z" fill-rule="nonzero"/><path fill="#000000" fill-opacity="0.0" clip-path="url(#id_0)" d="M128.07143 193.041C128.07143 194.69786 126.72828 196.041 125.07143 196.041C123.41457 196.041 122.07143 194.69786 122.07143 193.041C122.07143 191.38414 123.41457 190.041 125.07143 190.041C126.72828 190.041 128.07143 191.38414 128.07143 193.041Z" fill-rule="nonzero"/><path fill="#000000" fill-opacity="0.0" clip-path="url(#id_0)" d="M220.41429 192.923C220.41429 194.57985 219.07114 195.923 217.41429 195.923C215.75743 195.923 214.41429 194.57985 214.41429 192.923C214.41429 191.26614 215.75743 189.923 217.41429 189.923C219.07114 189.923 220.41429 191.26614 220.41429 192.923Z" fill-rule="nonzero"/><path fill="#000000" fill-opacity="0.0" clip-path="url(#id_0)" d="M405.1 192.569C405.1 194.22586 403.75687 195.569 402.1 195.569C400.44315 195.569 399.1 194.22586 399.1 192.569C399.1 190.91214 400.44315 189.569 402.1 189.569C403.75687 189.569 405.1 190.91214 405.1 192.569Z" fill-rule="nonzero"/><path fill="#000000" fill-opacity="0.0" clip-path="url(#id_0)" d="M81.9 193.1C81.9 194.75685 80.556854 196.1 78.9 196.1C77.24315 196.1 75.9 194.75685 75.9 193.1C75.9 191.44315 77.24315 190.1 78.9 190.1C80.556854 190.1 81.9 191.44315 81.9 193.1Z" fill-rule="nonzero"/><path fill="#000000" fill-opacity="0.0" clip-path="url(#id_0)" d="M128.07143 192.982C128.07143 194.63885 126.72828 195.982 125.07143 195.982C123.41457 195.982 122.07143 194.63885 122.07143 192.982C122.07143 191.32515 123.41457 189.982 125.07143 189.982C126.72828 189.982 128.07143 191.32515 128.07143 192.982Z" fill-rule="nonzero"/><path fill="#000000" fill-opacity="0.0" clip-path="url(#id_0)" d="M220.41429 192.805C220.41429 194.46185 219.07114 195.805 217.41429 195.805C215.75743 195.805 214.41429 194.46185 214.41429 192.805C214.41429 191.14815 215.75743 189.805 217.41429 189.805C219.07114 189.805 220.41429 191.14815 220.41429 192.805Z" fill-rule="nonzero"/><path fill="#000000" fill-opacity="0.0" clip-path="url(#id_0)" d="M405.1 191.92C405.1 193.57686 403.75687 194.92 402.1 194.92C400.44315 194.92 399.1 193.57686 399.1 191.92C399.1 190.26315 400.44315 188.92 402.1 188.92C403.75687 188.92 405.1 190.26315 405.1 191.92Z" fill-rule="nonzero"/><path fill="#000000" d="M213.07812 237.9125Q213.07812 235.77188 214.21875 234.56876Q215.375 233.35 217.1875 233.35Q218.39062 233.35 219.34375 233.92813Q220.29688 234.49063 220.79688 235.50626Q221.29688 236.52188 221.29688 237.81876Q221.29688 239.11563 220.76562 240.14688Q220.23438 241.17813 219.26562 241.70938Q218.3125 242.24063 217.1875 242.24063Q215.96875 242.24063 215.01562 241.6625Q214.0625 241.06876 213.5625 240.06876Q213.07812 239.05313 213.07812 237.9125ZM214.25 237.92813Q214.25 239.49063 215.07812 240.38126Q215.92188 241.27188 217.1875 241.27188Q218.46875 241.27188 219.29688 240.38126Q220.125 239.475 220.125 237.80313Q220.125 236.75626 219.76562 235.975Q219.42188 235.19376 218.73438 234.77188Q218.04688 234.33438 217.20312 234.33438Q216.0 234.33438 215.125 235.1625Q214.25 235.99063 214.25 237.92813ZM223.26562 242.1L222.28125 242.1L222.28125 233.50626L223.34375 233.50626L223.34375 236.56876Q224.01562 235.74063 225.04688 235.74063Q225.625 235.74063 226.125 235.975Q226.64062 236.19376 226.96875 236.61563Q227.3125 237.0375 227.5 237.63126Q227.6875 238.225 227.6875 238.89688Q227.6875 240.49063 226.89062 241.36563Q226.09375 242.24063 225.0 242.24063Q223.89062 242.24063 223.26562 241.31876L223.26562 242.1ZM223.25 238.94376Q223.25 240.05313 223.5625 240.55313Q224.0625 241.36563 224.90625 241.36563Q225.59375 241.36563 226.09375 240.77188Q226.60938 240.17813 226.60938 238.975Q226.60938 237.75626 226.125 237.17813Q225.64062 236.6 224.95312 236.6Q224.26562 236.6 223.75 237.20938Q223.25 237.80313 223.25 238.94376ZM228.875 240.24063L229.90625 240.08438Q230.0 240.70938 230.39062 241.0375Q230.79688 241.36563 231.53125 241.36563Q232.25 241.36563 232.59375 241.08438Q232.95312 240.7875 232.95312 240.38126Q232.95312 240.02188 232.64062 239.81876Q232.42188 239.67813 231.5625 239.45938Q230.40625 239.1625 229.95312 238.95938Q229.51562 238.74063 229.28125 238.36563Q229.04688 237.99063 229.04688 237.52188Q229.04688 237.11563 229.23438 236.75626Q229.42188 236.39688 229.75 236.1625Q230.0 235.99063 230.42188 235.86563Q230.84375 235.74063 231.34375 235.74063Q232.0625 235.74063 232.60938 235.95938Q233.17188 236.1625 233.4375 236.52188Q233.70312 236.88126 233.79688 237.475L232.76562 237.61563Q232.70312 237.14688 232.35938 236.88126Q232.03125 236.6 231.40625 236.6Q230.6875 236.6 230.375 236.85Q230.0625 237.08438 230.0625 237.4125Q230.0625 237.61563 230.1875 237.77188Q230.32812 237.94376 230.59375 238.05313Q230.75 238.11563 231.53125 238.31876Q232.65625 238.63126 233.09375 238.81876Q233.53125 239.00626 233.78125 239.36563Q234.03125 239.725 234.03125 240.27188Q234.03125 240.80313 233.71875 241.27188Q233.42188 241.725 232.84375 241.99063Q232.26562 242.24063 231.53125 242.24063Q230.3125 242.24063 229.67188 241.74063Q229.04688 241.225 228.875 240.24063ZM238.59375 241.1625L238.75 242.08438Q238.29688 242.17813 237.95312 242.17813Q237.375 242.17813 237.0625 242.00626Q236.75 241.81876 236.60938 241.52188Q236.48438 241.225 236.48438 240.27188L236.48438 236.69376L235.71875 236.69376L235.71875 235.88126L236.48438 235.88126L236.48438 234.33438L237.53125 233.70938L237.53125 235.88126L238.59375 235.88126L238.59375 236.69376L237.53125 236.69376L237.53125 240.33438Q237.53125 240.7875 237.57812 240.9125Q237.64062 241.0375 237.76562 241.11563Q237.89062 241.19376 238.125 241.19376Q238.3125 241.19376 238.59375 241.1625ZM243.35938 241.33438Q242.76562 241.83438 242.21875 242.0375Q241.6875 242.24063 241.0625 242.24063Q240.03125 242.24063 239.48438 241.74063Q238.9375 241.24063 238.9375 240.45938Q238.9375 240.00626 239.14062 239.63126Q239.34375 239.24063 239.6875 239.02188Q240.03125 238.7875 240.45312 238.67813Q240.75 238.58438 241.39062 238.50626Q242.65625 238.36563 243.26562 238.14688Q243.26562 237.92813 243.26562 237.88126Q243.26562 237.225 242.96875 236.95938Q242.5625 236.61563 241.76562 236.61563Q241.03125 236.61563 240.67188 236.88126Q240.3125 237.13126 240.14062 237.7875L239.10938 237.64688Q239.25 236.99063 239.57812 236.58438Q239.90625 236.17813 240.51562 235.95938Q241.125 235.74063 241.92188 235.74063Q242.71875 235.74063 243.21875 235.92813Q243.71875 236.11563 243.95312 236.39688Q244.1875 236.67813 244.28125 237.11563Q244.32812 237.38126 244.32812 238.08438L244.32812 239.49063Q244.32812 240.95938 244.39062 241.35Q244.46875 241.74063 244.67188 242.1L243.5625 242.1Q243.40625 241.77188 243.35938 241.33438ZM243.26562 238.975Q242.6875 239.20938 241.54688 239.38126Q240.89062 239.475 240.625 239.6Q240.35938 239.70938 240.20312 239.92813Q240.0625 240.14688 240.0625 240.42813Q240.0625 240.85 240.375 241.13126Q240.70312 241.4125 241.3125 241.4125Q241.92188 241.4125 242.39062 241.14688Q242.875 240.88126 243.09375 240.4125Q243.26562 240.05313 243.26562 239.36563L243.26562 238.975ZM250.35938 239.81876L251.39062 239.95938Q251.21875 241.02188 250.51562 241.63126Q249.8125 242.24063 248.79688 242.24063Q247.51562 242.24063 246.73438 241.4125Q245.96875 240.56876 245.96875 239.00626Q245.96875 238.00626 246.29688 237.25626Q246.64062 236.49063 247.3125 236.11563Q248.0 235.74063 248.8125 235.74063Q249.8125 235.74063 250.45312 236.25626Q251.10938 236.75626 251.29688 237.70938L250.26562 237.86563Q250.125 237.24063 249.75 236.92813Q249.375 236.6 248.84375 236.6Q248.04688 236.6 247.54688 237.17813Q247.04688 237.74063 247.04688 238.975Q247.04688 240.24063 247.53125 240.80313Q248.01562 241.36563 248.78125 241.36563Q249.40625 241.36563 249.8125 240.99063Q250.23438 240.61563 250.35938 239.81876ZM252.26562 242.1L252.26562 233.50626L253.32812 233.50626L253.32812 242.1L252.26562 242.1ZM259.54688 240.1L260.64062 240.225Q260.39062 241.17813 259.6875 241.70938Q258.98438 242.24063 257.90625 242.24063Q256.54688 242.24063 255.73438 241.39688Q254.9375 240.55313 254.9375 239.0375Q254.9375 237.475 255.75 236.61563Q256.5625 235.74063 257.84375 235.74063Q259.09375 235.74063 259.875 236.58438Q260.67188 237.42813 260.67188 238.975Q260.67188 239.06876 260.67188 239.25626L256.03125 239.25626Q256.09375 240.2875 256.60938 240.83438Q257.125 241.36563 257.90625 241.36563Q258.48438 241.36563 258.89062 241.06876Q259.3125 240.75626 259.54688 240.1ZM256.09375 238.39688L259.5625 238.39688Q259.5 237.6 259.17188 237.20938Q258.65625 236.6 257.85938 236.6Q257.125 236.6 256.625 237.08438Q256.14062 237.56876 256.09375 238.39688ZM261.875 240.24063L262.90625 240.08438Q263.0 240.70938 263.39062 241.0375Q263.79688 241.36563 264.53125 241.36563Q265.25 241.36563 265.59375 241.08438Q265.95312 240.7875 265.95312 240.38126Q265.95312 240.02188 265.64062 239.81876Q265.42188 239.67813 264.5625 239.45938Q263.40625 239.1625 262.95312 238.95938Q262.51562 238.74063 262.28125 238.36563Q262.04688 237.99063 262.04688 237.52188Q262.04688 237.11563 262.23438 236.75626Q262.42188 236.39688 262.75 236.1625Q263.0 235.99063 263.42188 235.86563Q263.84375 235.74063 264.34375 235.74063Q265.0625 235.74063 265.60938 235.95938Q266.17188 236.1625 266.4375 236.52188Q266.70312 236.88126 266.79688 237.475L265.76562 237.61563Q265.70312 237.14688 265.35938 236.88126Q265.03125 236.6 264.40625 236.6Q263.6875 236.6 263.375 236.85Q263.0625 237.08438 263.0625 237.4125Q263.0625 237.61563 263.1875 237.77188Q263.32812 237.94376 263.59375 238.05313Q263.75 238.11563 264.53125 238.31876Q265.65625 238.63126 266.09375 238.81876Q266.53125 239.00626 266.78125 239.36563Q267.03125 239.725 267.03125 240.27188Q267.03125 240.80313 266.71875 241.27188Q266.42188 241.725 265.84375 241.99063Q265.26562 242.24063 264.53125 242.24063Q263.3125 242.24063 262.67188 241.74063Q262.04688 241.225 261.875 240.24063Z" fill-rule="nonzero"/><path fill="#000000" d="M23.900005 165.99063L16.32188 165.99063L16.32188 168.81876L15.306256 168.81876L15.306256 162.00626L16.32188 162.00626L16.32188 164.85L23.900005 164.85L23.900005 165.99063ZM16.525005 161.30313L15.306256 161.30313L15.306256 160.24063L16.525005 160.24063L16.525005 161.30313ZM23.900005 161.30313L17.681255 161.30313L17.681255 160.24063L23.900005 160.24063L23.900005 161.30313ZM23.900005 158.30313L17.681255 158.30313L17.681255 157.36563L18.556255 157.36563Q18.087505 157.06876 17.82188 156.58438Q17.54063 156.1 17.54063 155.475Q17.54063 154.7875 17.82188 154.35Q18.10313 153.89688 18.618755 153.725Q17.54063 152.975 17.54063 151.80313Q17.54063 150.86563 18.056255 150.38126Q18.556255 149.88126 19.63438 149.88126L23.900005 149.88126L23.900005 150.92813L19.97813 150.92813Q19.35313 150.92813 19.07188 151.0375Q18.79063 151.13126 18.618755 151.39688Q18.44688 151.6625 18.44688 152.0375Q18.44688 152.69376 18.88438 153.13126Q19.32188 153.55313 20.29063 153.55313L23.900005 153.55313L23.900005 154.61563L19.85313 154.61563Q19.150005 154.61563 18.806255 154.88126Q18.44688 155.13126 18.44688 155.70938Q18.44688 156.1625 18.681255 156.5375Q18.91563 156.9125 19.368755 157.08438Q19.82188 157.25626 20.66563 157.25626L23.900005 157.25626L23.900005 158.30313ZM21.900005 143.05313L22.025005 141.95938Q22.97813 142.20938 23.50938 142.9125Q24.04063 143.61563 24.04063 144.69376Q24.04063 146.05313 23.19688 146.86563Q22.35313 147.6625 20.837505 147.6625Q19.275005 147.6625 18.41563 146.85Q17.54063 146.0375 17.54063 144.75626Q17.54063 143.50626 18.38438 142.725Q19.22813 141.92813 20.775005 141.92813Q20.868755 141.92813 21.056255 141.92813L21.056255 146.56876Q22.087505 146.50626 22.63438 145.99063Q23.16563 145.475 23.16563 144.69376Q23.16563 144.11563 22.868755 143.70938Q22.556255 143.2875 21.900005 143.05313ZM20.19688 146.50626L20.19688 143.0375Q19.400005 143.1 19.00938 143.42813Q18.400005 143.94376 18.400005 144.74063Q18.400005 145.475 18.88438 145.975Q19.368755 146.45938 20.19688 146.50626ZM26.431255 135.2875Q25.32188 136.1625 23.85313 136.77188Q22.368755 137.36563 20.79063 137.36563Q19.400005 137.36563 18.118755 136.92813Q16.63438 136.39688 15.165631 135.2875L15.165631 134.5375Q16.38438 135.24063 16.900005 135.475Q17.712505 135.83438 18.587505 136.0375Q19.681255 136.2875 20.79063 136.2875Q23.618755 136.2875 26.431255 134.5375L26.431255 135.2875ZM23.900005 133.30313L17.681255 133.30313L17.681255 132.36563L18.556255 132.36563Q18.087505 132.06876 17.82188 131.58438Q17.54063 131.1 17.54063 130.475Q17.54063 129.7875 17.82188 129.35Q18.10313 128.89688 18.618755 128.725Q17.54063 127.975 17.54063 126.80312Q17.54063 125.86562 18.056255 125.38125Q18.556255 124.88125 19.63438 124.88125L23.900005 124.88125L23.900005 125.92812L19.97813 125.92812Q19.35313 125.92812 19.07188 126.0375Q18.79063 126.13125 18.618755 126.39687Q18.44688 126.6625 18.44688 127.0375Q18.44688 127.69375 18.88438 128.13126Q19.32188 128.55313 20.29063 128.55313L23.900005 128.55313L23.900005 129.61563L19.85313 129.61563Q19.150005 129.61563 18.806255 129.88126Q18.44688 130.13126 18.44688 130.70938Q18.44688 131.1625 18.681255 131.5375Q18.91563 131.9125 19.368755 132.08438Q19.82188 132.25626 20.66563 132.25626L23.900005 132.25626L23.900005 133.30313ZM22.04063 122.725L21.88438 121.69375Q22.50938 121.6 22.837505 121.20937Q23.16563 120.80312 23.16563 120.06875Q23.16563 119.35 22.88438 119.00625Q22.587505 118.64687 22.181255 118.64687Q21.82188 118.64687 21.618755 118.95937Q21.47813 119.17812 21.25938 120.0375Q20.962505 121.19375 20.75938 121.64687Q20.54063 122.08437 20.16563 122.31875Q19.79063 122.55312 19.32188 122.55312Q18.91563 122.55312 18.556255 122.36562Q18.19688 122.17812 17.962505 121.85Q17.79063 121.6 17.66563 121.17812Q17.54063 120.75625 17.54063 120.25625Q17.54063 119.5375 17.75938 118.99062Q17.962505 118.42812 18.32188 118.1625Q18.681255 117.89687 19.275005 117.80312L19.41563 118.83437Q18.94688 118.89687 18.681255 119.24062Q18.400005 119.56875 18.400005 120.19375Q18.400005 120.9125 18.650005 121.225Q18.88438 121.5375 19.212505 121.5375Q19.41563 121.5375 19.57188 121.4125Q19.743755 121.27187 19.85313 121.00625Q19.91563 120.85 20.118755 120.06875Q20.431255 118.94375 20.618755 118.50625Q20.806255 118.06875 21.16563 117.81875Q21.525005 117.56875 22.07188 117.56875Q22.60313 117.56875 23.07188 117.88125Q23.525005 118.17812 23.79063 118.75625Q24.04063 119.33437 24.04063 120.06875Q24.04063 121.2875 23.54063 121.92812Q23.025005 122.55312 22.04063 122.725ZM26.431255 114.61562L26.431255 115.36562Q23.618755 113.61562 20.79063 113.61562Q19.69688 113.61562 18.60313 113.86562Q17.72813 114.06875 16.91563 114.42812Q16.400005 114.6625 15.165631 115.36562L15.165631 114.61562Q16.63438 113.52187 18.118755 112.99062Q19.400005 112.5375 20.79063 112.5375Q22.368755 112.5375 23.85313 113.14687Q25.32188 113.75625 26.431255 114.61562Z" fill-rule="nonzero"/><path fill="#000000" d="M66.4 192.86563Q66.4 191.33438 66.7125 190.4125Q67.025 189.475 67.63438 188.975Q68.25938 188.475 69.19688 188.475Q69.88438 188.475 70.4 188.75626Q70.93125 189.0375 71.275 189.56876Q71.61875 190.08438 71.80625 190.83438Q71.99375 191.58438 71.99375 192.86563Q71.99375 194.38126 71.68125 195.30313Q71.38438 196.225 70.75938 196.74063Q70.15 197.24063 69.19688 197.24063Q67.9625 197.24063 67.24375 196.35Q66.4 195.2875 66.4 192.86563ZM67.47813 192.86563Q67.47813 194.975 67.97813 195.67813Q68.47813 196.38126 69.19688 196.38126Q69.93125 196.38126 70.41563 195.67813Q70.91563 194.975 70.91563 192.86563Q70.91563 190.74063 70.41563 190.05313Q69.93125 189.35 69.18125 189.35Q68.4625 189.35 68.025 189.95938Q67.47813 190.74063 67.47813 192.86563Z" fill-rule="nonzero"/><path fill="#000000" d="M52.4 165.35L53.509377 165.25626Q53.634377 166.06876 54.071877 166.475Q54.525 166.88126 55.165627 166.88126Q55.915627 166.88126 56.446877 166.30313Q56.978127 165.725 56.978127 164.7875Q56.978127 163.88126 56.4625 163.36563Q55.9625 162.83438 55.134377 162.83438Q54.634377 162.83438 54.2125 163.06876Q53.80625 163.30313 53.571877 163.6625L52.5875 163.5375L53.415627 159.13126L57.696877 159.13126L57.696877 160.13126L54.259377 160.13126L53.80625 162.44376Q54.571877 161.89688 55.415627 161.89688Q56.540627 161.89688 57.30625 162.67813Q58.0875 163.45938 58.0875 164.69376Q58.0875 165.85 57.415627 166.70938Q56.5875 167.74063 55.165627 167.74063Q53.99375 167.74063 53.24375 167.08438Q52.509377 166.42813 52.4 165.35ZM59.4 163.36563Q59.4 161.83438 59.7125 160.9125Q60.025 159.975 60.634377 159.475Q61.259377 158.975 62.196877 158.975Q62.884377 158.975 63.4 159.25626Q63.93125 159.5375 64.275 160.06876Q64.61875 160.58438 64.80625 161.33438Q64.99375 162.08438 64.99375 163.36563Q64.99375 164.88126 64.68125 165.80313Q64.38438 166.725 63.759377 167.24063Q63.15 167.74063 62.196877 167.74063Q60.9625 167.74063 60.24375 166.85Q59.4 165.7875 59.4 163.36563ZM60.478127 163.36563Q60.478127 165.475 60.978127 166.17813Q61.478127 166.88126 62.196877 166.88126Q62.93125 166.88126 63.415627 166.17813Q63.915627 165.475 63.915627 163.36563Q63.915627 161.24063 63.415627 160.55313Q62.93125 159.85 62.18125 159.85Q61.4625 159.85 61.025 160.45938Q60.478127 161.24063 60.478127 163.36563ZM66.4 163.36563Q66.4 161.83438 66.7125 160.9125Q67.025 159.975 67.63438 159.475Q68.25938 158.975 69.19688 158.975Q69.88438 158.975 70.4 159.25626Q70.93125 159.5375 71.275 160.06876Q71.61875 160.58438 71.80625 161.33438Q71.99375 162.08438 71.99375 163.36563Q71.99375 164.88126 71.68125 165.80313Q71.38438 166.725 70.75938 167.24063Q70.15 167.74063 69.19688 167.74063Q67.9625 167.74063 67.24375 166.85Q66.4 165.7875 66.4 163.36563ZM67.47813 163.36563Q67.47813 165.475 67.97813 166.17813Q68.47813 166.88126 69.19688 166.88126Q69.93125 166.88126 70.41563 166.17813Q70.91563 165.475 70.91563 163.36563Q70.91563 161.24063 70.41563 160.55313Q69.93125 159.85 69.18125 159.85Q68.4625 159.85 68.025 160.45938Q67.47813 161.24063 67.47813 163.36563Z" fill-rule="nonzero"/><path fill="#000000" d="M49.36875 138.1L48.321877 138.1L48.321877 131.38126Q47.93125 131.74063 47.30625 132.11563Q46.696877 132.475 46.2125 132.64688L46.2125 131.63126Q47.0875 131.20938 47.74375 130.63126Q48.415627 130.0375 48.696877 129.475L49.36875 129.475L49.36875 138.1ZM52.4 133.86563Q52.4 132.33438 52.7125 131.4125Q53.025 130.475 53.634377 129.975Q54.259377 129.475 55.196877 129.475Q55.884377 129.475 56.4 129.75626Q56.93125 130.0375 57.275 130.56876Q57.61875 131.08438 57.80625 131.83438Q57.99375 132.58438 57.99375 133.86563Q57.99375 135.38126 57.68125 136.30313Q57.384377 137.225 56.759377 137.74063Q56.15 138.24063 55.196877 138.24063Q53.9625 138.24063 53.24375 137.35Q52.4 136.2875 52.4 133.86563ZM53.478127 133.86563Q53.478127 135.975 53.978127 136.67813Q54.478127 137.38126 55.196877 137.38126Q55.93125 137.38126 56.415627 136.67813Q56.915627 135.975 56.915627 133.86563Q56.915627 131.74063 56.415627 131.05313Q55.93125 130.35 55.18125 130.35Q54.4625 130.35 54.025 130.95938Q53.478127 131.74063 53.478127 133.86563ZM59.4 133.86563Q59.4 132.33438 59.7125 131.4125Q60.025 130.475 60.634377 129.975Q61.259377 129.475 62.196877 129.475Q62.884377 129.475 63.4 129.75626Q63.93125 130.0375 64.275 130.56876Q64.61875 131.08438 64.80625 131.83438Q64.99375 132.58438 64.99375 133.86563Q64.99375 135.38126 64.68125 136.30313Q64.38438 137.225 63.759377 137.74063Q63.15 138.24063 62.196877 138.24063Q60.9625 138.24063 60.24375 137.35Q59.4 136.2875 59.4 133.86563ZM60.478127 133.86563Q60.478127 135.975 60.978127 136.67813Q61.478127 137.38126 62.196877 137.38126Q62.93125 137.38126 63.415627 136.67813Q63.915627 135.975 63.915627 133.86563Q63.915627 131.74063 63.415627 131.05313Q62.93125 130.35 62.18125 130.35Q61.4625 130.35 61.025 130.95938Q60.478127 131.74063 60.478127 133.86563ZM66.4 133.86563Q66.4 132.33438 66.7125 131.4125Q67.025 130.475 67.63438 129.975Q68.25938 129.475 69.19688 129.475Q69.88438 129.475 70.4 129.75626Q70.93125 130.0375 71.275 130.56876Q71.61875 131.08438 71.80625 131.83438Q71.99375 132.58438 71.99375 133.86563Q71.99375 135.38126 71.68125 136.30313Q71.38438 137.225 70.75938 137.74063Q70.15 138.24063 69.19688 138.24063Q67.9625 138.24063 67.24375 137.35Q66.4 136.2875 66.4 133.86563ZM67.47813 133.86563Q67.47813 135.975 67.97813 136.67813Q68.47813 137.38126 69.19688 137.38126Q69.93125 137.38126 70.41563 136.67813Q70.91563 135.975 70.91563 133.86563Q70.91563 131.74063 70.41563 131.05313Q69.93125 130.35 69.18125 130.35Q68.4625 130.35 68.025 130.95938Q67.47813 131.74063 67.47813 133.86563Z" fill-rule="nonzero"/><path fill="#000000" d="M49.36875 108.6L48.321877 108.6L48.321877 101.88125Q47.93125 102.24062 47.30625 102.61562Q46.696877 102.975 46.2125 103.14687L46.2125 102.13125Q47.0875 101.70937 47.74375 101.13125Q48.415627 100.5375 48.696877 99.975L49.36875 99.975L49.36875 108.6ZM52.4 106.35L53.509377 106.25625Q53.634377 107.06875 54.071877 107.475Q54.525 107.88125 55.165627 107.88125Q55.915627 107.88125 56.446877 107.30312Q56.978127 106.725 56.978127 105.7875Q56.978127 104.88125 56.4625 104.36562Q55.9625 103.83437 55.134377 103.83437Q54.634377 103.83437 54.2125 104.06875Q53.80625 104.30312 53.571877 104.6625L52.5875 104.5375L53.415627 100.13125L57.696877 100.13125L57.696877 101.13125L54.259377 101.13125L53.80625 103.44375Q54.571877 102.89687 55.415627 102.89687Q56.540627 102.89687 57.30625 103.67812Q58.0875 104.45937 58.0875 105.69375Q58.0875 106.85 57.415627 107.70937Q56.5875 108.74062 55.165627 108.74062Q53.99375 108.74062 53.24375 108.08437Q52.509377 107.42812 52.4 106.35ZM59.4 104.36562Q59.4 102.83437 59.7125 101.9125Q60.025 100.975 60.634377 100.475Q61.259377 99.975 62.196877 99.975Q62.884377 99.975 63.4 100.25625Q63.93125 100.5375 64.275 101.06875Q64.61875 101.58437 64.80625 102.33437Q64.99375 103.08437 64.99375 104.36562Q64.99375 105.88125 64.68125 106.80312Q64.38438 107.725 63.759377 108.24062Q63.15 108.74062 62.196877 108.74062Q60.9625 108.74062 60.24375 107.85Q59.4 106.7875 59.4 104.36562ZM60.478127 104.36562Q60.478127 106.475 60.978127 107.17812Q61.478127 107.88125 62.196877 107.88125Q62.93125 107.88125 63.415627 107.17812Q63.915627 106.475 63.915627 104.36562Q63.915627 102.24062 63.415627 101.55312Q62.93125 100.85 62.18125 100.85Q61.4625 100.85 61.025 101.45937Q60.478127 102.24062 60.478127 104.36562ZM66.4 104.36562Q66.4 102.83437 66.7125 101.9125Q67.025 100.975 67.63438 100.475Q68.25938 99.975 69.19688 99.975Q69.88438 99.975 70.4 100.25625Q70.93125 100.5375 71.275 101.06875Q71.61875 101.58437 71.80625 102.33437Q71.99375 103.08437 71.99375 104.36562Q71.99375 105.88125 71.68125 106.80312Q71.38438 107.725 70.75938 108.24062Q70.15 108.74062 69.19688 108.74062Q67.9625 108.74062 67.24375 107.85Q66.4 106.7875 66.4 104.36562ZM67.47813 104.36562Q67.47813 106.475 67.97813 107.17812Q68.47813 107.88125 69.19688 107.88125Q69.93125 107.88125 70.41563 107.17812Q70.91563 106.475 70.91563 104.36562Q70.91563 102.24062 70.41563 101.55312Q69.93125 100.85 69.18125 100.85Q68.4625 100.85 68.025 101.45937Q67.47813 102.24062 67.47813 104.36562Z" fill-rule="nonzero"/><path fill="#000000" d="M50.946877 78.08437L50.946877 79.1L45.259377 79.1Q45.259377 78.725 45.384377 78.36562Q45.603127 77.7875 46.071877 77.225Q46.55625 76.6625 47.4625 75.92812Q48.86875 74.77187 49.353127 74.1Q49.853127 73.42812 49.853127 72.83437Q49.853127 72.20937 49.4 71.7875Q48.946877 71.35 48.228127 71.35Q47.4625 71.35 47.009377 71.80312Q46.55625 72.25625 46.540627 73.06875L45.4625 72.95937Q45.571877 71.74062 46.290627 71.11562Q47.025 70.475 48.259377 70.475Q49.49375 70.475 50.2125 71.1625Q50.93125 71.85 50.93125 72.86562Q50.93125 73.38125 50.7125 73.88125Q50.509377 74.36562 50.009377 74.92812Q49.525 75.475 48.4 76.42812Q47.446877 77.225 47.165627 77.52187Q46.9 77.80312 46.728127 78.08437L50.946877 78.08437ZM52.4 74.86562Q52.4 73.33437 52.7125 72.4125Q53.025 71.475 53.634377 70.975Q54.259377 70.475 55.196877 70.475Q55.884377 70.475 56.4 70.75625Q56.93125 71.0375 57.275 71.56875Q57.61875 72.08437 57.80625 72.83437Q57.99375 73.58437 57.99375 74.86562Q57.99375 76.38125 57.68125 77.30312Q57.384377 78.225 56.759377 78.74062Q56.15 79.24062 55.196877 79.24062Q53.9625 79.24062 53.24375 78.35Q52.4 77.2875 52.4 74.86562ZM53.478127 74.86562Q53.478127 76.975 53.978127 77.67812Q54.478127 78.38125 55.196877 78.38125Q55.93125 78.38125 56.415627 77.67812Q56.915627 76.975 56.915627 74.86562Q56.915627 72.74062 56.415627 72.05312Q55.93125 71.35 55.18125 71.35Q54.4625 71.35 54.025 71.95937Q53.478127 72.74062 53.478127 74.86562ZM59.4 74.86562Q59.4 73.33437 59.7125 72.4125Q60.025 71.475 60.634377 70.975Q61.259377 70.475 62.196877 70.475Q62.884377 70.475 63.4 70.75625Q63.93125 71.0375 64.275 71.56875Q64.61875 72.08437 64.80625 72.83437Q64.99375 73.58437 64.99375 74.86562Q64.99375 76.38125 64.68125 77.30312Q64.38438 78.225 63.759377 78.74062Q63.15 79.24062 62.196877 79.24062Q60.9625 79.24062 60.24375 78.35Q59.4 77.2875 59.4 74.86562ZM60.478127 74.86562Q60.478127 76.975 60.978127 77.67812Q61.478127 78.38125 62.196877 78.38125Q62.93125 78.38125 63.415627 77.67812Q63.915627 76.975 63.915627 74.86562Q63.915627 72.74062 63.415627 72.05312Q62.93125 71.35 62.18125 71.35Q61.4625 71.35 61.025 71.95937Q60.478127 72.74062 60.478127 74.86562ZM66.4 74.86562Q66.4 73.33437 66.7125 72.4125Q67.025 71.475 67.63438 70.975Q68.25938 70.475 69.19688 70.475Q69.88438 70.475 70.4 70.75625Q70.93125 71.0375 71.275 71.56875Q71.61875 72.08437 71.80625 72.83437Q71.99375 73.58437 71.99375 74.86562Q71.99375 76.38125 71.68125 77.30312Q71.38438 78.225 70.75938 78.74062Q70.15 79.24062 69.19688 79.24062Q67.9625 79.24062 67.24375 78.35Q66.4 77.2875 66.4 74.86562ZM67.47813 74.86562Q67.47813 76.975 67.97813 77.67812Q68.47813 78.38125 69.19688 78.38125Q69.93125 78.38125 70.41563 77.67812Q70.91563 76.975 70.91563 74.86562Q70.91563 72.74062 70.41563 72.05312Q69.93125 71.35 69.18125 71.35Q68.4625 71.35 68.025 71.95937Q67.47813 72.74062 67.47813 74.86562Z" fill-rule="nonzero"/><path fill="#000000" d="M124.1183 209.08438L124.1183 210.1L118.4308 210.1Q118.4308 209.725 118.5558 209.36563Q118.77455 208.7875 119.2433 208.225Q119.72768 207.6625 120.63393 206.92813Q122.04018 205.77188 122.52455 205.1Q123.02455 204.42813 123.02455 203.83438Q123.02455 203.20938 122.57143 202.7875Q122.1183 202.35 121.39955 202.35Q120.63393 202.35 120.1808 202.80313Q119.72768 203.25626 119.71205 204.06876L118.63393 203.95938Q118.7433 202.74063 119.46205 202.11563Q120.19643 201.475 121.4308 201.475Q122.66518 201.475 123.38393 202.1625Q124.10268 202.85 124.10268 203.86563Q124.10268 204.38126 123.88393 204.88126Q123.6808 205.36563 123.1808 205.92813Q122.69643 206.475 121.57143 207.42813Q120.6183 208.225 120.33705 208.52188Q120.07143 208.80313 119.89955 209.08438L124.1183 209.08438ZM125.57143 205.86563Q125.57143 204.33438 125.88393 203.4125Q126.19643 202.475 126.8058 201.975Q127.4308 201.475 128.3683 201.475Q129.0558 201.475 129.57143 201.75626Q130.10268 202.0375 130.44643 202.56876Q130.79018 203.08438 130.97768 203.83438Q131.16518 204.58438 131.16518 205.86563Q131.16518 207.38126 130.85268 208.30313Q130.5558 209.225 129.9308 209.74063Q129.32143 210.24063 128.3683 210.24063Q127.13393 210.24063 126.41518 209.35Q125.57143 208.2875 125.57143 205.86563ZM126.64955 205.86563Q126.64955 207.975 127.14955 208.67813Q127.64955 209.38126 128.3683 209.38126Q129.10268 209.38126 129.58705 208.67813Q130.08705 207.975 130.08705 205.86563Q130.08705 203.74063 129.58705 203.05313Q129.10268 202.35 128.35268 202.35Q127.63393 202.35 127.19643 202.95938Q126.64955 203.74063 126.64955 205.86563Z" fill-rule="nonzero"/><path fill="#000000" d="M214.28929 210.1L214.28929 208.0375L210.57054 208.0375L210.57054 207.06876L214.49242 201.50626L215.35179 201.50626L215.35179 207.06876L216.50804 207.06876L216.50804 208.0375L215.35179 208.0375L215.35179 210.1L214.28929 210.1ZM214.28929 207.06876L214.28929 203.20938L211.60179 207.06876L214.28929 207.06876ZM217.91429 205.86563Q217.91429 204.33438 218.22679 203.4125Q218.53929 202.475 219.14867 201.975Q219.77367 201.475 220.71117 201.475Q221.39867 201.475 221.91429 201.75626Q222.44554 202.0375 222.78929 202.56876Q223.13304 203.08438 223.32054 203.83438Q223.50804 204.58438 223.50804 205.86563Q223.50804 207.38126 223.19554 208.30313Q222.89867 209.225 222.27367 209.74063Q221.66429 210.24063 220.71117 210.24063Q219.47679 210.24063 218.75804 209.35Q217.91429 208.2875 217.91429 205.86563ZM218.99242 205.86563Q218.99242 207.975 219.49242 208.67813Q219.99242 209.38126 220.71117 209.38126Q221.44554 209.38126 221.92992 208.67813Q222.42992 207.975 222.42992 205.86563Q222.42992 203.74063 221.92992 203.05313Q221.44554 202.35 220.69554 202.35Q219.97679 202.35 219.53929 202.95938Q218.99242 203.74063 218.99242 205.86563Z" fill-rule="nonzero"/><path fill="#000000" d="M308.7259 203.61563L307.67902 203.69376Q307.5384 203.06876 307.2884 202.7875Q306.8509 202.33438 306.2259 202.33438Q305.7259 202.33438 305.33527 202.61563Q304.8509 202.99063 304.55402 203.69376Q304.27277 204.38126 304.25714 205.6625Q304.63214 205.08438 305.17902 204.80313Q305.74152 204.52188 306.3509 204.52188Q307.39777 204.52188 308.13214 205.30313Q308.88214 206.08438 308.88214 207.30313Q308.88214 208.11563 308.52277 208.81876Q308.17902 209.50626 307.56964 209.88126Q306.96027 210.24063 306.19464 210.24063Q304.86652 210.24063 304.0384 209.27188Q303.21027 208.30313 303.21027 206.08438Q303.21027 203.58438 304.13214 202.45938Q304.92902 201.475 306.2884 201.475Q307.30402 201.475 307.94464 202.05313Q308.6009 202.61563 308.7259 203.61563ZM304.42902 207.31876Q304.42902 207.86563 304.64777 208.36563Q304.88214 208.85 305.2884 209.11563Q305.71027 209.38126 306.17902 209.38126Q306.83527 209.38126 307.31964 208.85Q307.80402 208.30313 307.80402 207.38126Q307.80402 206.49063 307.31964 205.975Q306.8509 205.45938 306.13214 205.45938Q305.4134 205.45938 304.9134 205.975Q304.42902 206.49063 304.42902 207.31876ZM310.25714 205.86563Q310.25714 204.33438 310.56964 203.4125Q310.88214 202.475 311.49152 201.975Q312.11652 201.475 313.05402 201.475Q313.74152 201.475 314.25714 201.75626Q314.7884 202.0375 315.13214 202.56876Q315.4759 203.08438 315.6634 203.83438Q315.8509 204.58438 315.8509 205.86563Q315.8509 207.38126 315.5384 208.30313Q315.24152 209.225 314.61652 209.74063Q314.00714 210.24063 313.05402 210.24063Q311.81964 210.24063 311.1009 209.35Q310.25714 208.2875 310.25714 205.86563ZM311.33527 205.86563Q311.33527 207.975 311.83527 208.67813Q312.33527 209.38126 313.05402 209.38126Q313.7884 209.38126 314.27277 208.67813Q314.77277 207.975 314.77277 205.86563Q314.77277 203.74063 314.27277 203.05313Q313.7884 202.35 313.0384 202.35Q312.31964 202.35 311.88214 202.95938Q311.33527 203.74063 311.33527 205.86563Z" fill-rule="nonzero"/><path fill="#000000" d="M397.225 205.44376Q396.56876 205.19376 396.24063 204.75626Q395.92813 204.30313 395.92813 203.69376Q395.92813 202.75626 396.6 202.11563Q397.2875 201.475 398.39688 201.475Q399.52188 201.475 400.20938 202.13126Q400.89688 202.7875 400.89688 203.725Q400.89688 204.31876 400.58438 204.75626Q400.27188 205.19376 399.63126 205.44376Q400.42813 205.69376 400.83438 206.27188Q401.24063 206.85 401.24063 207.64688Q401.24063 208.74063 400.45938 209.49063Q399.69376 210.24063 398.4125 210.24063Q397.14688 210.24063 396.36563 209.49063Q395.58438 208.74063 395.58438 207.61563Q395.58438 206.77188 396.00626 206.20938Q396.44376 205.64688 397.225 205.44376ZM397.00626 203.64688Q397.00626 204.25626 397.39688 204.64688Q397.80313 205.0375 398.42813 205.0375Q399.0375 205.0375 399.42813 204.6625Q399.81876 204.27188 399.81876 203.70938Q399.81876 203.13126 399.4125 202.74063Q399.00626 202.33438 398.4125 202.33438Q397.80313 202.33438 397.39688 202.725Q397.00626 203.11563 397.00626 203.64688ZM396.67813 207.61563Q396.67813 208.06876 396.88126 208.49063Q397.1 208.9125 397.52188 209.14688Q397.94376 209.38126 398.42813 209.38126Q399.17813 209.38126 399.6625 208.89688Q400.1625 208.4125 400.1625 207.6625Q400.1625 206.89688 399.6625 206.39688Q399.1625 205.89688 398.39688 205.89688Q397.64688 205.89688 397.1625 206.39688Q396.67813 206.88126 396.67813 207.61563ZM402.6 205.86563Q402.6 204.33438 402.9125 203.4125Q403.225 202.475 403.83438 201.975Q404.45938 201.475 405.39688 201.475Q406.08438 201.475 406.6 201.75626Q407.13126 202.0375 407.475 202.56876Q407.81876 203.08438 408.00626 203.83438Q408.19376 204.58438 408.19376 205.86563Q408.19376 207.38126 407.88126 208.30313Q407.58438 209.225 406.95938 209.74063Q406.35 210.24063 405.39688 210.24063Q404.1625 210.24063 403.44376 209.35Q402.6 208.2875 402.6 205.86563ZM403.67813 205.86563Q403.67813 207.975 404.17813 208.67813Q404.67813 209.38126 405.39688 209.38126Q406.13126 209.38126 406.61563 208.67813Q407.11563 207.975 407.11563 205.86563Q407.11563 203.74063 406.61563 203.05313Q406.13126 202.35 405.38126 202.35Q404.6625 202.35 404.225 202.95938Q403.67813 203.74063 403.67813 205.86563Z" fill-rule="nonzero"/><path stroke="#4285f4" stroke-width="4.0" stroke-linecap="butt" d="M127.0 52.5L139.0 52.5" fill-rule="nonzero"/><path fill="#1a1a1a" d="M148.76562 56.5L147.78125 56.5L147.78125 47.90625L148.84375 47.90625L148.84375 50.96875Q149.51562 50.140625 150.54688 50.140625Q151.125 50.140625 151.625 50.375Q152.14062 50.59375 152.46875 51.015625Q152.8125 51.4375 153.0 52.03125Q153.1875 52.625 153.1875 53.296875Q153.1875 54.890625 152.39062 55.765625Q151.59375 56.640625 150.5 56.640625Q149.39062 56.640625 148.76562 55.71875L148.76562 56.5ZM148.75 53.34375Q148.75 54.453125 149.0625 54.953125Q149.5625 55.765625 150.40625 55.765625Q151.09375 55.765625 151.59375 55.171875Q152.10938 54.578125 152.10938 53.375Q152.10938 52.15625 151.625 51.578125Q151.14062 51.0 150.45312 51.0Q149.76562 51.0 149.25 51.609375Q148.75 52.203125 148.75 53.34375ZM155.04688 56.5L155.04688 51.09375L154.10938 51.09375L154.10938 50.28125L155.04688 50.28125L155.04688 49.609375Q155.04688 48.984375 155.15625 48.6875Q155.3125 48.265625 155.6875 48.015625Q156.07812 47.765625 156.76562 47.765625Q157.21875 47.765625 157.75 47.875L157.59375 48.78125Q157.26562 48.734375 156.96875 48.734375Q156.48438 48.734375 156.28125 48.9375Q156.09375 49.140625 156.09375 49.703125L156.09375 50.28125L157.3125 50.28125L157.3125 51.09375L156.09375 51.09375L156.09375 56.5L155.04688 56.5ZM157.375 54.640625L158.40625 54.484375Q158.5 55.109375 158.89062 55.4375Q159.29688 55.765625 160.03125 55.765625Q160.75 55.765625 161.09375 55.484375Q161.45312 55.1875 161.45312 54.78125Q161.45312 54.421875 161.14062 54.21875Q160.92188 54.078125 160.0625 53.859375Q158.90625 53.5625 158.45312 53.359375Q158.01562 53.140625 157.78125 52.765625Q157.54688 52.390625 157.54688 51.921875Q157.54688 51.515625 157.73438 51.15625Q157.92188 50.796875 158.25 50.5625Q158.5 50.390625 158.92188 50.265625Q159.34375 50.140625 159.84375 50.140625Q160.5625 50.140625 161.10938 50.359375Q161.67188 50.5625 161.9375 50.921875Q162.20312 51.28125 162.29688 51.875L161.26562 52.015625Q161.20312 51.546875 160.85938 51.28125Q160.53125 51.0 159.90625 51.0Q159.1875 51.0 158.875 51.25Q158.5625 51.484375 158.5625 51.8125Q158.5625 52.015625 158.6875 52.171875Q158.82812 52.34375 159.09375 52.453125Q159.25 52.515625 160.03125 52.71875Q161.15625 53.03125 161.59375 53.21875Q162.03125 53.40625 162.28125 53.765625Q162.53125 54.125 162.53125 54.671875Q162.53125 55.203125 162.21875 55.671875Q161.92188 56.125 161.34375 56.390625Q160.76562 56.640625 160.03125 56.640625Q158.8125 56.640625 158.17188 56.140625Q157.54688 55.625 157.375 54.640625Z" fill-rule="nonzero"/><path stroke="#ea4335" stroke-width="4.0" stroke-linecap="butt" d="M180.0 52.5L192.0 52.5" fill-rule="nonzero"/><path fill="#1a1a1a" d="M200.79688 56.5L200.79688 50.28125L201.73438 50.28125L201.73438 51.15625Q202.03125 50.6875 202.51562 50.421875Q203.0 50.140625 203.625 50.140625Q204.3125 50.140625 204.75 50.421875Q205.20312 50.703125 205.375 51.21875Q206.125 50.140625 207.29688 50.140625Q208.23438 50.140625 208.71875 50.65625Q209.21875 51.15625 209.21875 52.234375L209.21875 56.5L208.17188 56.5L208.17188 52.578125Q208.17188 51.953125 208.0625 51.671875Q207.96875 51.390625 207.70312 51.21875Q207.4375 51.046875 207.0625 51.046875Q206.40625 51.046875 205.96875 51.484375Q205.54688 51.921875 205.54688 52.890625L205.54688 56.5L204.48438 56.5L204.48438 52.453125Q204.48438 51.75 204.21875 51.40625Q203.96875 51.046875 203.39062 51.046875Q202.9375 51.046875 202.5625 51.28125Q202.1875 51.515625 202.01562 51.96875Q201.84375 52.421875 201.84375 53.265625L201.84375 56.5L200.79688 56.5ZM215.85938 55.734375Q215.26562 56.234375 214.71875 56.4375Q214.1875 56.640625 213.5625 56.640625Q212.53125 56.640625 211.98438 56.140625Q211.4375 55.640625 211.4375 54.859375Q211.4375 54.40625 211.64062 54.03125Q211.84375 53.640625 212.1875 53.421875Q212.53125 53.1875 212.95312 53.078125Q213.25 52.984375 213.89062 52.90625Q215.15625 52.765625 215.76562 52.546875Q215.76562 52.328125 215.76562 52.28125Q215.76562 51.625 215.46875 51.359375Q215.0625 51.015625 214.26562 51.015625Q213.53125 51.015625 213.17188 51.28125Q212.8125 51.53125 212.64062 52.1875L211.60938 52.046875Q211.75 51.390625 212.07812 50.984375Q212.40625 50.578125 213.01562 50.359375Q213.625 50.140625 214.42188 50.140625Q215.21875 50.140625 215.71875 50.328125Q216.21875 50.515625 216.45312 50.796875Q216.6875 51.078125 216.78125 51.515625Q216.82812 51.78125 216.82812 52.484375L216.82812 53.890625Q216.82812 55.359375 216.89062 55.75Q216.96875 56.140625 217.17188 56.5L216.0625 56.5Q215.90625 56.171875 215.85938 55.734375ZM215.76562 53.375Q215.1875 53.609375 214.04688 53.78125Q213.39062 53.875 213.125 54.0Q212.85938 54.109375 212.70312 54.328125Q212.5625 54.546875 212.5625 54.828125Q212.5625 55.25 212.875 55.53125Q213.20312 55.8125 213.8125 55.8125Q214.42188 55.8125 214.89062 55.546875Q215.375 55.28125 215.59375 54.8125Q215.76562 54.453125 215.76562 53.765625L215.76562 53.375ZM218.79688 56.5L218.79688 50.28125L219.73438 50.28125L219.73438 51.15625Q220.42188 50.140625 221.71875 50.140625Q222.28125 50.140625 222.75 50.34375Q223.23438 50.546875 223.46875 50.875Q223.70312 51.203125 223.79688 51.640625Q223.84375 51.9375 223.84375 52.671875L223.84375 56.5L222.79688 56.5L222.79688 52.71875Q222.79688 52.0625 222.67188 51.75Q222.54688 51.4375 222.23438 51.25Q221.92188 51.046875 221.5 51.046875Q220.82812 51.046875 220.32812 51.484375Q219.84375 51.90625 219.84375 53.09375L219.84375 56.5L218.79688 56.5ZM225.79688 56.5L225.79688 47.90625L226.84375 47.90625L226.84375 50.984375Q227.57812 50.140625 228.70312 50.140625Q229.40625 50.140625 229.90625 50.421875Q230.42188 50.6875 230.64062 51.171875Q230.85938 51.640625 230.85938 52.5625L230.85938 56.5L229.8125 56.5L229.8125 52.5625Q229.8125 51.765625 229.46875 51.40625Q229.125 51.046875 228.5 51.046875Q228.03125 51.046875 227.60938 51.296875Q227.20312 51.53125 227.01562 51.953125Q226.84375 52.359375 226.84375 53.09375L226.84375 56.5L225.79688 56.5Z" fill-rule="nonzero"/><path stroke="#fbbc04" stroke-width="4.0" stroke-linecap="butt" d="M248.0 52.5L260.0 52.5" fill-rule="nonzero"/><path fill="#1a1a1a" d="M273.04688 54.5L274.14062 54.625Q273.89062 55.578125 273.1875 56.109375Q272.48438 56.640625 271.40625 56.640625Q270.04688 56.640625 269.23438 55.796875Q268.4375 54.953125 268.4375 53.4375Q268.4375 51.875 269.25 51.015625Q270.0625 50.140625 271.34375 50.140625Q272.59375 50.140625 273.375 50.984375Q274.17188 51.828125 274.17188 53.375Q274.17188 53.46875 274.17188 53.65625L269.53125 53.65625Q269.59375 54.6875 270.10938 55.234375Q270.625 55.765625 271.40625 55.765625Q271.98438 55.765625 272.39062 55.46875Q272.8125 55.15625 273.04688 54.5ZM269.59375 52.796875L273.0625 52.796875Q273.0 52.0 272.67188 51.609375Q272.15625 51.0 271.35938 51.0Q270.625 51.0 270.125 51.484375Q269.64062 51.96875 269.59375 52.796875ZM279.875 56.5L279.875 55.578125Q279.14062 56.640625 277.89062 56.640625Q277.34375 56.640625 276.85938 56.4375Q276.39062 56.21875 276.15625 55.90625Q275.92188 55.578125 275.82812 55.109375Q275.76562 54.8125 275.76562 54.125L275.76562 50.28125L276.82812 50.28125L276.82812 53.734375Q276.82812 54.546875 276.89062 54.84375Q276.98438 55.25 277.29688 55.5Q277.625 55.734375 278.10938 55.734375Q278.57812 55.734375 278.98438 55.5Q279.40625 55.25 279.57812 54.828125Q279.76562 54.40625 279.76562 53.609375L279.76562 50.28125L280.8125 50.28125L280.8125 56.5L279.875 56.5ZM286.85938 54.21875L287.89062 54.359375Q287.71875 55.421875 287.01562 56.03125Q286.3125 56.640625 285.29688 56.640625Q284.01562 56.640625 283.23438 55.8125Q282.46875 54.96875 282.46875 53.40625Q282.46875 52.40625 282.79688 51.65625Q283.14062 50.890625 283.8125 50.515625Q284.5 50.140625 285.3125 50.140625Q286.3125 50.140625 286.95312 50.65625Q287.60938 51.15625 287.79688 52.109375L286.76562 52.265625Q286.625 51.640625 286.25 51.328125Q285.875 51.0 285.34375 51.0Q284.54688 51.0 284.04688 51.578125Q283.54688 52.140625 283.54688 53.375Q283.54688 54.640625 284.03125 55.203125Q284.51562 55.765625 285.28125 55.765625Q285.90625 55.765625 286.3125 55.390625Q286.73438 55.015625 286.85938 54.21875Z" fill-rule="nonzero"/><path fill="#757575" d="M14.446875 31.9L14.446875 17.5875L19.8375 17.5875Q21.275 17.5875 22.025 17.7125Q23.071875 17.9 23.790625 18.4Q24.509375 18.884375 24.93125 19.775Q25.36875 20.665625 25.36875 21.728125Q25.36875 23.55625 24.196875 24.821875Q23.040625 26.071875 20.009375 26.071875L16.3375 26.071875L16.3375 31.9L14.446875 31.9ZM16.3375 24.384375L20.040625 24.384375Q21.86875 24.384375 22.634375 23.7125Q23.415625 23.025 23.415625 21.775Q23.415625 20.884375 22.9625 20.24375Q22.509375 19.603125 21.775 19.4Q21.290625 19.275 19.99375 19.275L16.3375 19.275L16.3375 24.384375ZM34.321877 28.55625L36.134377 28.790625Q35.7125 30.36875 34.540627 31.259375Q33.384377 32.134377 31.571875 32.134377Q29.30625 32.134377 27.9625 30.74375Q26.634375 29.3375 26.634375 26.80625Q26.634375 24.18125 27.978125 22.74375Q29.321875 21.290625 31.478125 21.290625Q33.55625 21.290625 34.86875 22.7125Q36.196877 24.11875 36.196877 26.696875Q36.196877 26.853125 36.18125 27.165625L28.446875 27.165625Q28.540625 28.86875 29.415625 29.775Q30.290625 30.68125 31.5875 30.68125Q32.55625 30.68125 33.228127 30.18125Q33.915627 29.665625 34.321877 28.55625ZM28.540625 25.7125L34.3375 25.7125Q34.228127 24.415625 33.68125 23.759375Q32.8375 22.74375 31.49375 22.74375Q30.290625 22.74375 29.4625 23.55625Q28.634375 24.353125 28.540625 25.7125ZM38.196877 31.9L38.196877 21.525L39.775 21.525L39.775 23.103125Q40.384377 21.99375 40.9 21.65Q41.415627 21.290625 42.025 21.290625Q42.915627 21.290625 43.8375 21.853125L43.228127 23.49375Q42.5875 23.103125 41.946877 23.103125Q41.36875 23.103125 40.9 23.4625Q40.446877 23.80625 40.24375 24.415625Q39.9625 25.353125 39.9625 26.4625L39.9625 31.9L38.196877 31.9ZM45.634377 31.9L45.634377 22.9L44.0875 22.9L44.0875 21.525L45.634377 21.525L45.634377 20.43125Q45.634377 19.384375 45.821877 18.86875Q46.071877 18.18125 46.7125 17.759375Q47.353127 17.3375 48.509377 17.3375Q49.259377 17.3375 50.15 17.509375L49.884377 19.040625Q49.3375 18.946875 48.853127 18.946875Q48.05625 18.946875 47.7125 19.290625Q47.384377 19.634375 47.384377 20.571875L47.384377 21.525L49.415627 21.525L49.415627 22.9L47.384377 22.9L47.384377 31.9L45.634377 31.9ZM50.571877 26.7125Q50.571877 23.8375 52.165627 22.446875Q53.509377 21.290625 55.43125 21.290625Q57.571877 21.290625 58.915627 22.696875Q60.275 24.103125 60.275 26.571875Q60.275 28.571875 59.68125 29.728125Q59.0875 30.86875 57.93125 31.509375Q56.790627 32.134377 55.43125 32.134377Q53.24375 32.134377 51.9 30.74375Q50.571877 29.3375 50.571877 26.7125ZM52.36875 26.7125Q52.36875 28.7125 53.228127 29.696875Q54.103127 30.68125 55.43125 30.68125Q56.74375 30.68125 57.603127 29.696875Q58.478127 28.696875 58.478127 26.65Q58.478127 24.728125 57.603127 23.74375Q56.728127 22.74375 55.43125 22.74375Q54.103127 22.74375 53.228127 23.74375Q52.36875 24.728125 52.36875 26.7125ZM62.196877 31.9L62.196877 21.525L63.775 21.525L63.775 23.103125Q64.38438 21.99375 64.9 21.65Q65.41563 21.290625 66.025 21.290625Q66.91563 21.290625 67.8375 21.853125L67.22813 23.49375Q66.5875 23.103125 65.94688 23.103125Q65.36875 23.103125 64.9 23.4625Q64.44688 23.80625 64.24375 24.415625Q63.9625 25.353125 63.9625 26.4625L63.9625 31.9L62.196877 31.9ZM69.2125 31.9L69.2125 21.525L70.79063 21.525L70.79063 22.978125Q71.275 22.228125 72.0875 21.759375Q72.9 21.290625 73.93125 21.290625Q75.0875 21.290625 75.82188 21.775Q76.55625 22.24375 76.86875 23.103125Q78.10313 21.290625 80.07188 21.290625Q81.61875 21.290625 82.44688 22.15Q83.275 23.009375 83.275 24.775L83.275 31.9L81.525 31.9L81.525 25.36875Q81.525 24.30625 81.35313 23.853125Q81.18125 23.384375 80.72813 23.103125Q80.29063 22.821875 79.68125 22.821875Q78.5875 22.821875 77.85313 23.55625Q77.13438 24.275 77.13438 25.86875L77.13438 31.9L75.38438 31.9L75.38438 25.165625Q75.38438 23.99375 74.94688 23.415625Q74.525 22.821875 73.54063 22.821875Q72.80625 22.821875 72.16563 23.2125Q71.54063 23.603125 71.25938 24.353125Q70.97813 25.103125 70.97813 26.525L70.97813 31.9L69.2125 31.9ZM91.99375 30.61875Q91.00938 31.446875 90.10313 31.790625Q89.19688 32.134377 88.16563 32.134377Q86.4625 32.134377 85.54063 31.30625Q84.61875 30.4625 84.61875 29.165625Q84.61875 28.4 84.9625 27.775Q85.32188 27.15 85.88438 26.775Q86.44688 26.384375 87.15 26.18125Q87.66563 26.05625 88.7125 25.915625Q90.8375 25.665625 91.8375 25.321875Q91.85313 24.9625 91.85313 24.853125Q91.85313 23.790625 91.35313 23.3375Q90.68125 22.74375 89.35313 22.74375Q88.10313 22.74375 87.50938 23.18125Q86.93125 23.61875 86.65 24.728125L84.93125 24.49375Q85.16563 23.384375 85.69688 22.7125Q86.22813 22.025 87.24375 21.665625Q88.25938 21.290625 89.60313 21.290625Q90.93125 21.290625 91.75938 21.603125Q92.5875 21.915625 92.97813 22.4Q93.36875 22.86875 93.525 23.5875Q93.61875 24.040625 93.61875 25.2125L93.61875 27.55625Q93.61875 30.009375 93.72813 30.665625Q93.8375 31.30625 94.18125 31.9L92.3375 31.9Q92.07188 31.353125 91.99375 30.61875ZM91.8375 26.696875Q90.88438 27.0875 88.9625 27.353125Q87.88438 27.509375 87.43125 27.7125Q86.99375 27.9 86.74375 28.275Q86.49375 28.65 86.49375 29.11875Q86.49375 29.821875 87.025 30.290625Q87.55625 30.759375 88.5875 30.759375Q89.60313 30.759375 90.38438 30.321875Q91.18125 29.86875 91.55625 29.103125Q91.8375 28.49375 91.8375 27.3375L91.8375 26.696875ZM96.2125 31.9L96.2125 21.525L97.80625 21.525L97.80625 23.009375Q98.94688 21.290625 101.10313 21.290625Q102.04063 21.290625 102.82188 21.634375Q103.61875 21.9625 104.00938 22.509375Q104.4 23.05625 104.55625 23.80625Q104.65 24.30625 104.65 25.525L104.65 31.9L102.88438 31.9L102.88438 25.5875Q102.88438 24.509375 102.68125 23.978125Q102.47813 23.446875 101.94688 23.134375Q101.43125 22.821875 100.72813 22.821875Q99.60313 22.821875 98.79063 23.540625Q97.97813 24.24375 97.97813 26.228125L97.97813 31.9L96.2125 31.9ZM112.99375 28.103125L114.7125 28.321875Q114.43125 30.11875 113.25938 31.134375Q112.10313 32.134377 110.4 32.134377Q108.275 32.134377 106.97813 30.74375Q105.68125 29.353125 105.68125 26.759375Q105.68125 25.071875 106.22813 23.821875Q106.79063 22.55625 107.93125 21.93125Q109.07188 21.290625 110.41563 21.290625Q112.10313 21.290625 113.16563 22.15Q114.24375 23.009375 114.55625 24.571875L112.8375 24.8375Q112.60313 23.790625 111.97813 23.275Q111.35313 22.74375 110.47813 22.74375Q109.15 22.74375 108.32188 23.696875Q107.49375 24.65 107.49375 26.696875Q107.49375 28.790625 108.29063 29.74375Q109.0875 30.68125 110.38438 30.68125Q111.41563 30.68125 112.10313 30.05625Q112.80625 29.415625 112.99375 28.103125ZM123.32188 28.55625L125.13438 28.790625Q124.7125 30.36875 123.54063 31.259375Q122.38438 32.134377 120.57188 32.134377Q118.30625 32.134377 116.9625 30.74375Q115.63438 29.3375 115.63438 26.80625Q115.63438 24.18125 116.97813 22.74375Q118.32188 21.290625 120.47813 21.290625Q122.55625 21.290625 123.86875 22.7125Q125.19688 24.11875 125.19688 26.696875Q125.19688 26.853125 125.18125 27.165625L117.44688 27.165625Q117.54063 28.86875 118.41563 29.775Q119.29063 30.68125 120.5875 30.68125Q121.55625 30.68125 122.22813 30.18125Q122.91563 29.665625 123.32188 28.55625ZM117.54063 25.7125L123.3375 25.7125Q123.22813 24.415625 122.68125 23.759375Q121.8375 22.74375 120.49375 22.74375Q119.29063 22.74375 118.4625 23.55625Q117.63438 24.353125 117.54063 25.7125Z" fill-rule="nonzero"/></svg>